<svg width="73" height="72" viewBox="0 0 73 72" fill="none" xmlns="http://www.w3.org/2000/svg">
<g clip-path="url(#clip0_2_4210)">
<g clip-path="url(#clip1_2_4210)">
<path d="M13.7008 25.2002H11.3008V27.6002H13.7008V25.2002Z" fill="#FC724D"/>
</g>
</g>
<g clip-path="url(#clip2_2_4210)">
<g clip-path="url(#clip3_2_4210)">
<path d="M28.0996 25.2002H16.0996V27.6002H28.0996V25.2002Z" fill="#FC724D"/>
</g>
</g>
<g clip-path="url(#clip4_2_4210)">
<g clip-path="url(#clip5_2_4210)">
<path d="M28.1004 30H8.90039V32.4H28.1004V30Z" fill="#FC724D"/>
</g>
</g>
<g clip-path="url(#clip6_2_4210)">
<g clip-path="url(#clip7_2_4210)">
<path d="M23.3004 34.7998H8.90039V37.1998H23.3004V34.7998Z" fill="#FC724D"/>
</g>
</g>
<g clip-path="url(#clip8_2_4210)">
<g clip-path="url(#clip9_2_4210)">
<path d="M37.7008 60H35.3008V62.4H37.7008V60Z" fill="#FC724D"/>
</g>
</g>
<g clip-path="url(#clip10_2_4210)">
<g clip-path="url(#clip11_2_4210)">
<path d="M40.0992 9.6001H37.6992V12.0001H40.0992V9.6001Z" fill="#FC724D"/>
</g>
</g>
<g clip-path="url(#clip12_2_4210)">
<g clip-path="url(#clip13_2_4210)">
<path d="M35.3004 9.6001H32.9004V12.0001H35.3004V9.6001Z" fill="#FC724D"/>
</g>
</g>
<g clip-path="url(#clip14_2_4210)">
<g clip-path="url(#clip15_2_4210)">
<path d="M66.5004 23.9998H55.7004V9.5998C55.7004 6.94885 53.5513 4.7998 50.9004 4.7998H22.1004C19.4494 4.7998 17.3004 6.94885 17.3004 9.5998V20.3998H6.50039C4.51214 20.3998 2.90039 22.0116 2.90039 23.9998V38.3998C2.90039 40.3881 4.51214 41.9998 6.50039 41.9998H17.3004V62.3998C17.3004 65.0508 19.4494 67.1998 22.1004 67.1998H50.9004C53.5513 67.1998 55.7004 65.0508 55.7004 62.3998V47.9998H66.5004C68.4886 47.9998 70.1004 46.3881 70.1004 44.3998V27.5998C70.1004 25.6116 68.4886 23.9998 66.5004 23.9998ZM19.7004 9.5998C19.7004 8.27425 20.7748 7.1998 22.1004 7.1998H50.9004C52.2259 7.1998 53.3004 8.27425 53.3004 9.5998V14.3998H19.7004V9.5998ZM6.50039 39.5998C5.83769 39.5998 5.30039 39.0625 5.30039 38.3998V23.9998C5.30039 23.3371 5.83769 22.7998 6.50039 22.7998H30.5004C31.1631 22.7998 31.7004 23.3371 31.7004 23.9998V38.3998C31.7004 39.0625 31.1631 39.5998 30.5004 39.5998H26.9004C26.2377 39.5998 25.7004 40.1371 25.7004 40.7998V43.357L20.3664 39.8014C20.169 39.6703 19.9374 39.6003 19.7004 39.5998H6.50039ZM53.3004 62.3998C53.3004 63.7254 52.2259 64.7998 50.9004 64.7998H22.1004C20.7748 64.7998 19.7004 63.7254 19.7004 62.3998V57.5998H53.3004V62.3998ZM53.3004 55.1998H19.7004V42.2398L26.2344 46.5958C26.7856 46.9636 27.5308 46.8149 27.8986 46.2635C28.0297 46.0671 28.0999 45.8361 28.1004 45.5998V41.9998H30.5004C32.4886 41.9998 34.1004 40.3881 34.1004 38.3998V23.9998C34.1004 22.0116 32.4886 20.3998 30.5004 20.3998H19.7004V16.7998H53.3004V23.9998H42.5004C40.5121 23.9998 38.9004 25.6116 38.9004 27.5998V44.3998C38.9004 46.3881 40.5121 47.9998 42.5004 47.9998H44.9004V51.5998C44.9002 52.2625 45.4375 52.8 46.1002 52.8C46.3374 52.8 46.5691 52.7298 46.7664 52.5982L53.3004 48.2398V55.1998ZM67.7004 44.3998C67.7004 45.0625 67.1631 45.5998 66.5004 45.5998H53.3004C53.0634 45.6003 52.8318 45.6703 52.6344 45.8014L47.3004 49.357V46.7998C47.3004 46.1371 46.7631 45.5998 46.1004 45.5998H42.5004C41.8377 45.5998 41.3004 45.0625 41.3004 44.3998V27.5998C41.3004 26.9371 41.8377 26.3998 42.5004 26.3998H66.5004C67.1631 26.3998 67.7004 26.9371 67.7004 27.5998V44.3998Z" fill="#FC724D"/>
</g>
</g>
<g clip-path="url(#clip16_2_4210)">
<g clip-path="url(#clip17_2_4210)">
<path d="M14.9 63.6V54H12.5V63.6C12.5052 68.2369 16.263 71.9947 20.9 72V69.6C17.588 69.5961 14.9039 66.912 14.9 63.6Z" fill="#FC724D"/>
</g>
</g>
<g clip-path="url(#clip18_2_4210)">
<g clip-path="url(#clip19_2_4210)">
<path d="M14.9 49.2002H12.5V51.6002H14.9V49.2002Z" fill="#FC724D"/>
</g>
</g>
<g clip-path="url(#clip20_2_4210)">
<g clip-path="url(#clip21_2_4210)">
<path d="M52.1 0H48.5V2.4H52.1C55.412 2.4039 58.0961 5.088 58.1 8.4V14.4H60.5V8.4C60.4948 3.76305 56.7369 0.00525 52.1 0Z" fill="#FC724D"/>
</g>
</g>
<g clip-path="url(#clip22_2_4210)">
<g clip-path="url(#clip23_2_4210)">
<path d="M60.4996 16.7998H58.0996V19.1998H60.4996V16.7998Z" fill="#FC724D"/>
</g>
</g>
<g clip-path="url(#clip24_2_4210)">
<g clip-path="url(#clip25_2_4210)">
<path d="M60.5008 32.3998H58.1008V29.9998C58.1008 29.3371 57.5635 28.7998 56.9008 28.7998H52.1008C51.4381 28.7998 50.9008 29.3371 50.9008 29.9998V32.3998H48.5008C47.8381 32.3998 47.3008 32.9371 47.3008 33.5998V38.3998C47.3008 39.0625 47.8381 39.5998 48.5008 39.5998H50.9008V41.9998C50.9008 42.6625 51.4381 43.1998 52.1008 43.1998H56.9008C57.5635 43.1998 58.1008 42.6625 58.1008 41.9998V39.5998H60.5008C61.1635 39.5998 61.7008 39.0625 61.7008 38.3998V33.5998C61.7008 32.9371 61.1635 32.3998 60.5008 32.3998ZM59.3008 37.1998H56.9008C56.2381 37.1998 55.7008 37.7371 55.7008 38.3998V40.7998H53.3008V38.3998C53.3008 37.7371 52.7635 37.1998 52.1008 37.1998H49.7008V34.7998H52.1008C52.7635 34.7998 53.3008 34.2625 53.3008 33.5998V31.1998H55.7008V33.5998C55.7008 34.2625 56.2381 34.7998 56.9008 34.7998H59.3008V37.1998Z" fill="#FC724D"/>
</g>
</g>
<defs>
<clipPath id="clip0_2_4210">
<rect width="2.4" height="2.4" fill="white" transform="translate(11.3008 25.2002)"/>
</clipPath>
<clipPath id="clip1_2_4210">
<rect width="2.4" height="2.4" fill="white" transform="translate(11.3008 25.2002)"/>
</clipPath>
<clipPath id="clip2_2_4210">
<rect width="12" height="2.4" fill="white" transform="translate(16.0996 25.2002)"/>
</clipPath>
<clipPath id="clip3_2_4210">
<rect width="12" height="2.4" fill="white" transform="translate(16.0996 25.2002)"/>
</clipPath>
<clipPath id="clip4_2_4210">
<rect width="19.2" height="2.4" fill="white" transform="translate(8.90039 30)"/>
</clipPath>
<clipPath id="clip5_2_4210">
<rect width="19.2" height="2.4" fill="white" transform="translate(8.90039 30)"/>
</clipPath>
<clipPath id="clip6_2_4210">
<rect width="14.4" height="2.4" fill="white" transform="translate(8.90039 34.7998)"/>
</clipPath>
<clipPath id="clip7_2_4210">
<rect width="14.4" height="2.4" fill="white" transform="translate(8.90039 34.7998)"/>
</clipPath>
<clipPath id="clip8_2_4210">
<rect width="2.4" height="2.4" fill="white" transform="translate(35.3008 60)"/>
</clipPath>
<clipPath id="clip9_2_4210">
<rect width="2.4" height="2.4" fill="white" transform="translate(35.3008 60)"/>
</clipPath>
<clipPath id="clip10_2_4210">
<rect width="2.40001" height="2.4" fill="white" transform="translate(37.6992 9.6001)"/>
</clipPath>
<clipPath id="clip11_2_4210">
<rect width="2.40001" height="2.4" fill="white" transform="translate(37.6992 9.6001)"/>
</clipPath>
<clipPath id="clip12_2_4210">
<rect width="2.4" height="2.4" fill="white" transform="translate(32.9004 9.6001)"/>
</clipPath>
<clipPath id="clip13_2_4210">
<rect width="2.4" height="2.4" fill="white" transform="translate(32.9004 9.6001)"/>
</clipPath>
<clipPath id="clip14_2_4210">
<rect width="67.2" height="62.4" fill="white" transform="translate(2.90039 4.7998)"/>
</clipPath>
<clipPath id="clip15_2_4210">
<rect width="67.2" height="62.4" fill="white" transform="translate(2.90039 4.7998)"/>
</clipPath>
<clipPath id="clip16_2_4210">
<rect width="8.4" height="18" fill="white" transform="translate(12.5 54)"/>
</clipPath>
<clipPath id="clip17_2_4210">
<rect width="8.4" height="18" fill="white" transform="translate(12.5 54)"/>
</clipPath>
<clipPath id="clip18_2_4210">
<rect width="2.4" height="2.4" fill="white" transform="translate(12.5 49.2002)"/>
</clipPath>
<clipPath id="clip19_2_4210">
<rect width="2.4" height="2.4" fill="white" transform="translate(12.5 49.2002)"/>
</clipPath>
<clipPath id="clip20_2_4210">
<rect width="12" height="14.4" fill="white" transform="translate(48.5)"/>
</clipPath>
<clipPath id="clip21_2_4210">
<rect width="12" height="14.4" fill="white" transform="translate(48.5)"/>
</clipPath>
<clipPath id="clip22_2_4210">
<rect width="2.4" height="2.4" fill="white" transform="translate(58.0996 16.7998)"/>
</clipPath>
<clipPath id="clip23_2_4210">
<rect width="2.4" height="2.4" fill="white" transform="translate(58.0996 16.7998)"/>
</clipPath>
<clipPath id="clip24_2_4210">
<rect width="14.4" height="14.4" fill="white" transform="translate(47.3008 28.7998)"/>
</clipPath>
<clipPath id="clip25_2_4210">
<rect width="14.4" height="14.4" fill="white" transform="translate(47.3008 28.7998)"/>
</clipPath>
</defs>
</svg>
