<svg width="25" height="21" viewBox="0 0 25 21" fill="none" xmlns="http://www.w3.org/2000/svg">
<path fill-rule="evenodd" clip-rule="evenodd" d="M-0.41875 2.71667C-0.25492 1.9804 0.147815 1.32302 0.723498 0.852181C1.29918 0.38134 2.01369 0.124949 2.75 0.125H22.25C22.9863 0.124949 23.7008 0.38134 24.2765 0.852181C24.8522 1.32302 25.2549 1.9804 25.4187 2.71667L12.5 10.815L-0.41875 2.71667ZM-0.5 4.62V16.46L8.92988 10.53L-0.5 4.62ZM10.4866 11.5083L-0.189625 18.22C0.0741557 18.7905 0.490481 19.2724 1.0109 19.6096C1.53131 19.9469 2.13441 20.1256 2.75 20.125H22.25C22.8655 20.1251 23.4684 19.946 23.9885 19.6085C24.5086 19.2709 24.9246 18.7889 25.188 18.2183L14.5118 11.5067L12.5 12.7683L10.4866 11.5067V11.5083ZM16.0701 10.5317L25.5 16.46V4.62L16.0701 10.53V10.5317Z" fill="#FC724D"/>
</svg>
