<svg width="16" height="16" viewBox="0 0 16 16" fill="none" xmlns="http://www.w3.org/2000/svg">
<path d="M0.5 9.90039C0.632608 9.90039 0.759785 9.95307 0.853553 10.0468C0.947322 10.1406 1 10.2678 1 10.4004V12.9004C1 13.1656 1.10536 13.42 1.29289 13.6075C1.48043 13.795 1.73478 13.9004 2 13.9004H14C14.2652 13.9004 14.5196 13.795 14.7071 13.6075C14.8946 13.42 15 13.1656 15 12.9004V10.4004C15 10.2678 15.0527 10.1406 15.1464 10.0468C15.2402 9.95307 15.3674 9.90039 15.5 9.90039C15.6326 9.90039 15.7598 9.95307 15.8536 10.0468C15.9473 10.1406 16 10.2678 16 10.4004V12.9004C16 13.4308 15.7893 13.9395 15.4142 14.3146C15.0391 14.6897 14.5304 14.9004 14 14.9004H2C1.46957 14.9004 0.960859 14.6897 0.585786 14.3146C0.210714 13.9395 0 13.4308 0 12.9004V10.4004C0 10.2678 0.0526784 10.1406 0.146447 10.0468C0.240215 9.95307 0.367392 9.90039 0.5 9.90039Z" fill="#737373"/>
<path d="M7.64663 11.854C7.69308 11.9006 7.74825 11.9375 7.809 11.9627C7.86974 11.9879 7.93486 12.0009 8.00063 12.0009C8.0664 12.0009 8.13152 11.9879 8.19227 11.9627C8.25301 11.9375 8.30819 11.9006 8.35463 11.854L11.3546 8.854C11.4485 8.76011 11.5013 8.63278 11.5013 8.5C11.5013 8.36722 11.4485 8.23989 11.3546 8.146C11.2607 8.05211 11.1334 7.99937 11.0006 7.99937C10.8679 7.99937 10.7405 8.05211 10.6466 8.146L8.50063 10.293V1.5C8.50063 1.36739 8.44795 1.24021 8.35419 1.14645C8.26042 1.05268 8.13324 1 8.00063 1C7.86802 1 7.74085 1.05268 7.64708 1.14645C7.55331 1.24021 7.50063 1.36739 7.50063 1.5V10.293L5.35463 8.146C5.26075 8.05211 5.13341 7.99937 5.00063 7.99937C4.86786 7.99937 4.74052 8.05211 4.64663 8.146C4.55275 8.23989 4.5 8.36722 4.5 8.5C4.5 8.63278 4.55275 8.76011 4.64663 8.854L7.64663 11.854Z" fill="#737373"/>
</svg>
