<svg width="347" height="322" viewBox="0 0 347 322" fill="none" xmlns="http://www.w3.org/2000/svg">
<path d="M33.26 33.214V35.16H28.388V37.176H32.77V39.038H28.388V41.068H33.414V43H26.204V33.214H33.26ZM37.3858 38.8V43H35.2858V35.468H37.3858V36.308C38.0205 35.664 38.7345 35.342 39.5278 35.342C40.3211 35.342 40.9838 35.622 41.5158 36.182C42.0571 36.742 42.3278 37.4887 42.3278 38.422V43H40.2278V38.744C40.2278 37.5867 39.8031 37.008 38.9538 37.008C38.5338 37.008 38.1651 37.162 37.8478 37.47C37.5398 37.7687 37.3858 38.212 37.3858 38.8ZM49.7052 39.08C49.7052 38.4733 49.5372 37.9973 49.2012 37.652C48.8652 37.3067 48.4499 37.134 47.9552 37.134C47.4605 37.134 47.0312 37.3067 46.6672 37.652C46.3125 37.9973 46.1352 38.4687 46.1352 39.066C46.1352 39.6633 46.3079 40.1487 46.6532 40.522C47.0079 40.886 47.4372 41.068 47.9412 41.068C48.4452 41.068 48.8652 40.886 49.2012 40.522C49.5372 40.158 49.7052 39.6773 49.7052 39.08ZM49.9992 41.726C49.3365 42.4633 48.5105 42.832 47.5212 42.832C46.5412 42.832 45.7105 42.5007 45.0292 41.838C44.3572 41.166 44.0212 40.2747 44.0212 39.164C44.0212 38.044 44.3665 37.1293 45.0572 36.42C45.7572 35.7013 46.5552 35.342 47.4512 35.342C48.3472 35.342 49.0892 35.7107 49.6772 36.448V35.454H51.7772V42.02C51.7772 42.692 51.6605 43.2893 51.4272 43.812C51.1939 44.3347 50.8812 44.7453 50.4892 45.044C49.7145 45.66 48.7999 45.968 47.7452 45.968C47.1852 45.968 46.6112 45.8747 46.0232 45.688C45.4445 45.5107 44.9359 45.254 44.4972 44.918L45.3092 43.336C45.9999 43.8587 46.7279 44.12 47.4932 44.12C48.2679 44.12 48.8792 43.9287 49.3272 43.546C49.7752 43.1633 49.9992 42.5567 49.9992 41.726ZM56.0651 43H53.9651V32.612H56.0651V43ZM60.353 43H58.253V35.468H60.353V43ZM58.421 34.516C58.1877 34.2733 58.071 33.9793 58.071 33.634C58.071 33.2887 58.1877 32.9993 58.421 32.766C58.6637 32.5233 58.9577 32.402 59.303 32.402C59.6483 32.402 59.9377 32.5233 60.171 32.766C60.4137 32.9993 60.535 33.2887 60.535 33.634C60.535 33.9793 60.4137 34.2733 60.171 34.516C59.9377 34.7493 59.6483 34.866 59.303 34.866C58.9577 34.866 58.6637 34.7493 58.421 34.516ZM68.2109 40.662C68.2109 41.3993 67.9355 41.992 67.3849 42.44C66.8435 42.888 66.1529 43.112 65.3129 43.112C64.7529 43.112 64.1695 43.014 63.5629 42.818C62.9562 42.6127 62.4102 42.314 61.9249 41.922L62.8489 40.606C63.6329 41.2127 64.4682 41.516 65.3549 41.516C65.6255 41.516 65.8402 41.4647 65.9989 41.362C66.1575 41.25 66.2369 41.1053 66.2369 40.928C66.2369 40.7507 66.1249 40.5873 65.9009 40.438C65.6862 40.2887 65.3689 40.1487 64.9489 40.018C64.5382 39.8873 64.2209 39.7753 63.9969 39.682C63.7822 39.5887 63.5349 39.4533 63.2549 39.276C62.6855 38.9213 62.4009 38.3987 62.4009 37.708C62.4009 37.008 62.6809 36.4387 63.2409 36C63.8009 35.5613 64.5242 35.342 65.4109 35.342C66.2975 35.342 67.1842 35.6407 68.0709 36.238L67.2869 37.638C66.6335 37.19 65.9802 36.966 65.3269 36.966C64.6829 36.966 64.3609 37.1433 64.3609 37.498C64.3609 37.694 64.4635 37.848 64.6689 37.96C64.8742 38.072 65.2149 38.2027 65.6909 38.352C66.1669 38.5013 66.5029 38.618 66.6989 38.702C66.9042 38.7767 67.1469 38.898 67.4269 39.066C67.9495 39.3833 68.2109 39.9153 68.2109 40.662ZM72.1143 38.94V43H70.0143V32.612H72.1143V36.308C72.749 35.664 73.4583 35.342 74.2423 35.342C75.0356 35.342 75.703 35.622 76.2443 36.182C76.7856 36.742 77.0563 37.4887 77.0563 38.422V43H74.9563V38.884C74.9563 37.7267 74.5316 37.148 73.6823 37.148C73.2623 37.148 72.8936 37.302 72.5763 37.61C72.2683 37.9087 72.1143 38.352 72.1143 38.94ZM86.7151 33.214C88.4605 33.214 89.7998 33.6433 90.7331 34.502C91.6665 35.3513 92.1331 36.5367 92.1331 38.058C92.1331 39.5793 91.6758 40.7833 90.7611 41.67C89.8558 42.5567 88.4698 43 86.6031 43H83.2571V33.214H86.7151ZM86.8271 41.068C87.8258 41.068 88.5911 40.816 89.1231 40.312C89.6645 39.808 89.9351 39.0753 89.9351 38.114C89.9351 37.1527 89.6645 36.4153 89.1231 35.902C88.5911 35.3793 87.7698 35.118 86.6591 35.118H85.4411V41.068H86.8271ZM100.531 41.908C99.6816 42.7107 98.6829 43.112 97.5349 43.112C96.3962 43.112 95.4536 42.762 94.7069 42.062C93.9602 41.3527 93.5869 40.4053 93.5869 39.22C93.5869 38.0347 93.9649 37.092 94.7209 36.392C95.4862 35.692 96.3869 35.342 97.4229 35.342C98.4589 35.342 99.3362 35.6547 100.055 36.28C100.783 36.9053 101.147 37.764 101.147 38.856V39.976H95.6589C95.7242 40.3867 95.9389 40.7227 96.3029 40.984C96.6669 41.2453 97.0776 41.376 97.5349 41.376C98.2722 41.376 98.8789 41.1287 99.3549 40.634L100.531 41.908ZM99.0189 38.478C98.9722 38.03 98.8042 37.6847 98.5149 37.442C98.2256 37.1993 97.8709 37.078 97.4509 37.078C97.0402 37.078 96.6622 37.204 96.3169 37.456C95.9716 37.708 95.7709 38.0487 95.7149 38.478H99.0189ZM107.243 35.342C108.121 35.342 108.9 35.7107 109.581 36.448C110.272 37.176 110.617 38.0953 110.617 39.206C110.617 40.3167 110.272 41.2453 109.581 41.992C108.9 42.7387 108.097 43.112 107.173 43.112C106.259 43.112 105.521 42.7433 104.961 42.006V45.716H102.861V35.468H104.961V36.308C105.605 35.664 106.366 35.342 107.243 35.342ZM104.933 39.248C104.933 39.8547 105.101 40.354 105.437 40.746C105.783 41.1287 106.198 41.32 106.683 41.32C107.169 41.32 107.593 41.1287 107.957 40.746C108.321 40.354 108.503 39.8547 108.503 39.248C108.503 38.6413 108.326 38.1327 107.971 37.722C107.617 37.3113 107.192 37.106 106.697 37.106C106.203 37.106 105.783 37.3113 105.437 37.722C105.101 38.1233 104.933 38.632 104.933 39.248ZM118.783 43H116.809V42.09C116.268 42.7713 115.596 43.112 114.793 43.112C114 43.112 113.333 42.8833 112.791 42.426C112.25 41.9593 111.979 41.3433 111.979 40.578C111.979 39.8033 112.259 39.2247 112.819 38.842C113.379 38.4593 114.145 38.268 115.115 38.268H116.683V38.226C116.683 37.4233 116.259 37.022 115.409 37.022C115.045 37.022 114.658 37.0967 114.247 37.246C113.846 37.386 113.505 37.5633 113.225 37.778L112.287 36.42C113.277 35.7013 114.406 35.342 115.675 35.342C116.59 35.342 117.337 35.5707 117.915 36.028C118.494 36.4853 118.783 37.2087 118.783 38.198V43ZM116.669 40.13V39.766H115.353C114.513 39.766 114.093 40.0273 114.093 40.55C114.093 40.8207 114.191 41.0307 114.387 41.18C114.593 41.32 114.882 41.39 115.255 41.39C115.629 41.39 115.955 41.278 116.235 41.054C116.525 40.8207 116.669 40.5127 116.669 40.13ZM124.86 37.316C124.235 37.316 123.768 37.54 123.46 37.988C123.152 38.4267 122.998 39.01 122.998 39.738V43H120.898V35.468H122.998V36.462C123.269 36.154 123.605 35.8927 124.006 35.678C124.417 35.4633 124.832 35.3513 125.252 35.342L125.266 37.316H124.86ZM129.36 36.98V40.354C129.36 40.6433 129.434 40.872 129.584 41.04C129.733 41.1987 129.91 41.278 130.116 41.278C130.508 41.278 130.839 41.1007 131.11 40.746L131.894 42.216C131.24 42.8133 130.55 43.112 129.822 43.112C129.103 43.112 128.492 42.874 127.988 42.398C127.493 41.922 127.246 41.2733 127.246 40.452V36.98H126.364V35.468H127.246V33.214H129.36V35.468H131.18V36.98H129.36ZM139.744 41.908C138.894 42.7107 137.896 43.112 136.748 43.112C135.609 43.112 134.666 42.762 133.92 42.062C133.173 41.3527 132.8 40.4053 132.8 39.22C132.8 38.0347 133.178 37.092 133.934 36.392C134.699 35.692 135.6 35.342 136.636 35.342C137.672 35.342 138.549 35.6547 139.268 36.28C139.996 36.9053 140.36 37.764 140.36 38.856V39.976H134.872C134.937 40.3867 135.152 40.7227 135.516 40.984C135.88 41.2453 136.29 41.376 136.748 41.376C137.485 41.376 138.092 41.1287 138.568 40.634L139.744 41.908ZM138.232 38.478C138.185 38.03 138.017 37.6847 137.728 37.442C137.438 37.1993 137.084 37.078 136.664 37.078C136.253 37.078 135.875 37.204 135.53 37.456C135.184 37.708 134.984 38.0487 134.928 38.478H138.232ZM148.99 38.94V43H146.876V38.884C146.876 38.2867 146.783 37.848 146.596 37.568C146.419 37.288 146.125 37.148 145.714 37.148C145.313 37.148 144.953 37.302 144.636 37.61C144.328 37.9087 144.174 38.352 144.174 38.94V43H142.074V35.468H144.174V36.322C144.753 35.6687 145.415 35.342 146.162 35.342C146.638 35.342 147.067 35.482 147.45 35.762C147.842 36.042 148.136 36.3827 148.332 36.784C148.621 36.3267 149.009 35.972 149.494 35.72C149.989 35.468 150.483 35.342 150.978 35.342C151.865 35.342 152.579 35.608 153.12 36.14C153.661 36.6627 153.932 37.4233 153.932 38.422V43H151.818V38.884C151.818 37.7267 151.393 37.148 150.544 37.148C150.124 37.148 149.76 37.302 149.452 37.61C149.144 37.9087 148.99 38.352 148.99 38.94ZM162.566 41.908C161.716 42.7107 160.718 43.112 159.57 43.112C158.431 43.112 157.488 42.762 156.742 42.062C155.995 41.3527 155.622 40.4053 155.622 39.22C155.622 38.0347 156 37.092 156.756 36.392C157.521 35.692 158.422 35.342 159.458 35.342C160.494 35.342 161.371 35.6547 162.09 36.28C162.818 36.9053 163.182 37.764 163.182 38.856V39.976H157.694C157.759 40.3867 157.974 40.7227 158.338 40.984C158.702 41.2453 159.112 41.376 159.57 41.376C160.307 41.376 160.914 41.1287 161.39 40.634L162.566 41.908ZM161.054 38.478C161.007 38.03 160.839 37.6847 160.55 37.442C160.26 37.1993 159.906 37.078 159.486 37.078C159.075 37.078 158.697 37.204 158.352 37.456C158.006 37.708 157.806 38.0487 157.75 38.478H161.054ZM166.996 38.8V43H164.896V35.468H166.996V36.308C167.631 35.664 168.345 35.342 169.138 35.342C169.931 35.342 170.594 35.622 171.126 36.182C171.667 36.742 171.938 37.4887 171.938 38.422V43H169.838V38.744C169.838 37.5867 169.413 37.008 168.564 37.008C168.144 37.008 167.775 37.162 167.458 37.47C167.15 37.7687 166.996 38.212 166.996 38.8ZM176.434 36.98V40.354C176.434 40.6433 176.509 40.872 176.658 41.04C176.807 41.1987 176.985 41.278 177.19 41.278C177.582 41.278 177.913 41.1007 178.184 40.746L178.968 42.216C178.315 42.8133 177.624 43.112 176.896 43.112C176.177 43.112 175.566 42.874 175.062 42.398C174.567 41.922 174.32 41.2733 174.32 40.452V36.98H173.438V35.468H174.32V33.214H176.434V35.468H178.254V36.98H176.434Z" fill="#FC724D"/>
<path d="M273 38C273 30.8203 278.82 25 286 25H310C317.18 25 323 30.8203 323 38C323 45.1797 317.18 51 310 51H286C278.82 51 273 45.1797 273 38Z" fill="#26335D"/>
<path d="M293.5 36.3H287.775L286 30.75L284.225 36.3H278.5L283.125 39.725L281.375 45.25L286 41.825L290.625 45.25L288.85 39.7L293.5 36.3Z" fill="#FFCE31"/>
<path d="M303.044 38.604V37.068H304.388V38.604H305.396V39.888H304.388V42H303.044V39.888H299.444V38.64L302.528 33.612H304.076L301.04 38.604H303.044ZM307.111 41.832C306.943 41.656 306.859 41.444 306.859 41.196C306.859 40.948 306.943 40.74 307.111 40.572C307.287 40.396 307.499 40.308 307.747 40.308C307.995 40.308 308.207 40.396 308.383 40.572C308.559 40.74 308.647 40.948 308.647 41.196C308.647 41.444 308.559 41.656 308.383 41.832C308.207 42.008 307.995 42.096 307.747 42.096C307.499 42.096 307.287 42.008 307.111 41.832ZM312.822 40.824C313.566 40.824 314.114 40.572 314.466 40.068C314.818 39.564 314.998 38.884 315.006 38.028C314.806 38.252 314.518 38.464 314.142 38.664C313.766 38.856 313.35 38.952 312.894 38.952C312.142 38.952 311.51 38.704 310.998 38.208C310.494 37.704 310.242 37.04 310.242 36.216C310.242 35.384 310.514 34.716 311.058 34.212C311.61 33.708 312.302 33.456 313.134 33.456C314.478 33.456 315.406 34.056 315.918 35.256C316.206 35.944 316.35 36.72 316.35 37.584C316.35 38.448 316.258 39.168 316.074 39.744C315.89 40.32 315.638 40.776 315.318 41.112C314.694 41.768 313.926 42.096 313.014 42.096C312.11 42.096 311.29 41.812 310.554 41.244L311.262 40.2C311.446 40.36 311.69 40.504 311.994 40.632C312.306 40.76 312.582 40.824 312.822 40.824ZM313.074 37.704C313.562 37.704 313.966 37.572 314.286 37.308C314.614 37.036 314.778 36.688 314.778 36.264C314.778 35.832 314.622 35.464 314.31 35.16C313.998 34.848 313.606 34.692 313.134 34.692C312.67 34.692 312.286 34.832 311.982 35.112C311.678 35.384 311.526 35.736 311.526 36.168C311.526 36.6 311.662 36.964 311.934 37.26C312.214 37.556 312.594 37.704 313.074 37.704Z" fill="white"/>
<path d="M33.32 67.816H35.816V79H33.32V74.6H28.872V79H26.376V67.816H28.872V72.488H33.32V67.816ZM45.8795 77.752C44.9088 78.6693 43.7675 79.128 42.4555 79.128C41.1542 79.128 40.0768 78.728 39.2235 77.928C38.3702 77.1173 37.9435 76.0347 37.9435 74.68C37.9435 73.3253 38.3755 72.248 39.2395 71.448C40.1142 70.648 41.1435 70.248 42.3275 70.248C43.5115 70.248 44.5142 70.6053 45.3355 71.32C46.1675 72.0347 46.5835 73.016 46.5835 74.264V75.544H40.3115C40.3862 76.0133 40.6315 76.3973 41.0475 76.696C41.4635 76.9947 41.9328 77.144 42.4555 77.144C43.2982 77.144 43.9915 76.8613 44.5355 76.296L45.8795 77.752ZM44.1515 73.832C44.0982 73.32 43.9062 72.9253 43.5755 72.648C43.2448 72.3707 42.8395 72.232 42.3595 72.232C41.8902 72.232 41.4582 72.376 41.0635 72.664C40.6688 72.952 40.4395 73.3413 40.3755 73.832H44.1515ZM55.7261 79H53.4701V77.96C52.8515 78.7387 52.0835 79.128 51.1661 79.128C50.2595 79.128 49.4968 78.8667 48.8781 78.344C48.2595 77.8107 47.9501 77.1067 47.9501 76.232C47.9501 75.3467 48.2701 74.6853 48.9101 74.248C49.5501 73.8107 50.4248 73.592 51.5341 73.592H53.3261V73.544C53.3261 72.6267 52.8408 72.168 51.8701 72.168C51.4541 72.168 51.0115 72.2533 50.5421 72.424C50.0835 72.584 49.6941 72.7867 49.3741 73.032L48.3021 71.48C49.4328 70.6587 50.7235 70.248 52.1741 70.248C53.2195 70.248 54.0728 70.5093 54.7341 71.032C55.3955 71.5547 55.7261 72.3813 55.7261 73.512V79ZM53.3101 75.72V75.304H51.8061C50.8461 75.304 50.3661 75.6027 50.3661 76.2C50.3661 76.5093 50.4781 76.7493 50.7021 76.92C50.9368 77.08 51.2675 77.16 51.6941 77.16C52.1208 77.16 52.4941 77.032 52.8141 76.776C53.1448 76.5093 53.3101 76.1573 53.3101 75.72ZM60.4141 79H58.0141V67.128H60.4141V79ZM65.65 72.12V75.976C65.65 76.3067 65.7353 76.568 65.906 76.76C66.0767 76.9413 66.2793 77.032 66.514 77.032C66.962 77.032 67.3407 76.8293 67.65 76.424L68.546 78.104C67.7993 78.7867 67.01 79.128 66.178 79.128C65.3567 79.128 64.658 78.856 64.082 78.312C63.5167 77.768 63.234 77.0267 63.234 76.088V72.12H62.226V70.392H63.234V67.816H65.65V70.392H67.73V72.12H65.65ZM72.3329 74.36V79H69.9329V67.128H72.3329V71.352C73.0582 70.616 73.8689 70.248 74.7649 70.248C75.6715 70.248 76.4342 70.568 77.0529 71.208C77.6715 71.848 77.9809 72.7013 77.9809 73.768V79H75.5809V74.296C75.5809 72.9733 75.0955 72.312 74.1249 72.312C73.6449 72.312 73.2235 72.488 72.8609 72.84C72.5089 73.1813 72.3329 73.688 72.3329 74.36ZM95.9144 73.336C95.9144 74.4987 95.6157 75.544 95.0184 76.472C94.4317 77.4 93.637 78.0933 92.6344 78.552C92.7304 78.712 92.8797 78.8507 93.0824 78.968C93.2957 79.0747 93.5144 79.128 93.7384 79.128C93.9624 79.128 94.181 79.0907 94.3944 79.016C94.6077 78.952 94.7784 78.872 94.9064 78.776C95.1837 78.552 95.381 78.3333 95.4984 78.12L96.7944 79.672C95.877 80.6427 94.7304 81.128 93.3544 81.128C92.7144 81.128 92.085 80.952 91.4664 80.6C90.8477 80.248 90.373 79.752 90.0424 79.112C88.389 79.112 86.997 78.5627 85.8664 77.464C84.7357 76.3547 84.1704 74.9787 84.1704 73.336C84.1704 71.6933 84.7357 70.3227 85.8664 69.224C86.997 68.1147 88.389 67.56 90.0424 67.56C91.6957 67.56 93.0877 68.1147 94.2184 69.224C95.349 70.3227 95.9144 71.6933 95.9144 73.336ZM93.3704 73.352C93.3704 72.3493 93.0504 71.496 92.4104 70.792C91.7704 70.088 90.981 69.736 90.0424 69.736C89.1144 69.736 88.3304 70.088 87.6904 70.792C87.0504 71.496 86.7304 72.3493 86.7304 73.352C86.7304 74.344 87.0504 75.192 87.6904 75.896C88.3304 76.5893 89.1144 76.936 90.0424 76.936C90.981 76.936 91.7704 76.5893 92.4104 75.896C93.0504 75.192 93.3704 74.344 93.3704 73.352ZM103.457 75.032V70.392H105.873V79H103.457V77.864C102.859 78.7067 102.086 79.128 101.137 79.128C100.198 79.128 99.4088 78.8347 98.7688 78.248C98.1288 77.6507 97.8088 76.7707 97.8088 75.608V70.392H100.225V75.08C100.225 76.4027 100.71 77.064 101.681 77.064C102.161 77.064 102.577 76.8933 102.929 76.552C103.281 76.2 103.457 75.6933 103.457 75.032ZM115.695 77.752C114.724 78.6693 113.583 79.128 112.271 79.128C110.97 79.128 109.892 78.728 109.039 77.928C108.186 77.1173 107.759 76.0347 107.759 74.68C107.759 73.3253 108.191 72.248 109.055 71.448C109.93 70.648 110.959 70.248 112.143 70.248C113.327 70.248 114.33 70.6053 115.151 71.32C115.983 72.0347 116.399 73.016 116.399 74.264V75.544H110.127C110.202 76.0133 110.447 76.3973 110.863 76.696C111.279 76.9947 111.748 77.144 112.271 77.144C113.114 77.144 113.807 76.8613 114.351 76.296L115.695 77.752ZM113.967 73.832C113.914 73.32 113.722 72.9253 113.391 72.648C113.06 72.3707 112.655 72.232 112.175 72.232C111.706 72.232 111.274 72.376 110.879 72.664C110.484 72.952 110.255 73.3413 110.191 73.832H113.967ZM122.758 72.504C122.043 72.504 121.51 72.76 121.158 73.272C120.806 73.7733 120.63 74.44 120.63 75.272V79H118.23V70.392H120.63V71.528C120.939 71.176 121.323 70.8773 121.782 70.632C122.251 70.3867 122.726 70.2587 123.206 70.248L123.222 72.504H122.758ZM127.308 79H124.908V70.392H127.308V79ZM125.1 69.304C124.833 69.0267 124.7 68.6907 124.7 68.296C124.7 67.9013 124.833 67.5707 125.1 67.304C125.377 67.0267 125.713 66.888 126.108 66.888C126.503 66.888 126.833 67.0267 127.1 67.304C127.377 67.5707 127.516 67.9013 127.516 68.296C127.516 68.6907 127.377 69.0267 127.1 69.304C126.833 69.5707 126.503 69.704 126.108 69.704C125.713 69.704 125.377 69.5707 125.1 69.304ZM137.136 77.752C136.165 78.6693 135.024 79.128 133.712 79.128C132.41 79.128 131.333 78.728 130.48 77.928C129.626 77.1173 129.2 76.0347 129.2 74.68C129.2 73.3253 129.632 72.248 130.496 71.448C131.37 70.648 132.4 70.248 133.584 70.248C134.768 70.248 135.77 70.6053 136.592 71.32C137.424 72.0347 137.84 73.016 137.84 74.264V75.544H131.568C131.642 76.0133 131.888 76.3973 132.304 76.696C132.72 76.9947 133.189 77.144 133.712 77.144C134.554 77.144 135.248 76.8613 135.792 76.296L137.136 77.752ZM135.408 73.832C135.354 73.32 135.162 72.9253 134.832 72.648C134.501 72.3707 134.096 72.232 133.616 72.232C133.146 72.232 132.714 72.376 132.32 72.664C131.925 72.952 131.696 73.3413 131.632 73.832H135.408ZM146.15 76.328C146.15 77.1707 145.836 77.848 145.206 78.36C144.588 78.872 143.798 79.128 142.838 79.128C142.198 79.128 141.532 79.016 140.838 78.792C140.145 78.5573 139.521 78.216 138.966 77.768L140.022 76.264C140.918 76.9573 141.873 77.304 142.886 77.304C143.196 77.304 143.441 77.2453 143.622 77.128C143.804 77 143.894 76.8347 143.894 76.632C143.894 76.4293 143.766 76.2427 143.51 76.072C143.265 75.9013 142.902 75.7413 142.422 75.592C141.953 75.4427 141.59 75.3147 141.334 75.208C141.089 75.1013 140.806 74.9467 140.486 74.744C139.836 74.3387 139.51 73.7413 139.51 72.952C139.51 72.152 139.83 71.5013 140.47 71C141.11 70.4987 141.937 70.248 142.95 70.248C143.964 70.248 144.977 70.5893 145.99 71.272L145.094 72.872C144.348 72.36 143.601 72.104 142.854 72.104C142.118 72.104 141.75 72.3067 141.75 72.712C141.75 72.936 141.868 73.112 142.102 73.24C142.337 73.368 142.726 73.5173 143.27 73.688C143.814 73.8587 144.198 73.992 144.422 74.088C144.657 74.1733 144.934 74.312 145.254 74.504C145.852 74.8667 146.15 75.4747 146.15 76.328Z" fill="#252B42"/>
<path d="M29.41 107.256L31.594 100.214H33.078L35.262 107.256L37.726 100.214H39.504L36.088 110H34.45L32.392 103.294H32.28L30.222 110H28.584L25.168 100.214H26.946L29.41 107.256ZM47.9339 106.962H42.0959C42.1333 107.503 42.3806 107.942 42.8379 108.278C43.2953 108.605 43.8179 108.768 44.4059 108.768C45.3393 108.768 46.0486 108.474 46.5339 107.886L47.4299 108.866C46.6273 109.697 45.5819 110.112 44.2939 110.112C43.2486 110.112 42.3573 109.767 41.6199 109.076C40.8919 108.376 40.5279 107.443 40.5279 106.276C40.5279 105.1 40.9013 104.167 41.6479 103.476C42.3946 102.785 43.2719 102.44 44.2799 102.44C45.2973 102.44 46.1606 102.748 46.8699 103.364C47.5793 103.971 47.9339 104.811 47.9339 105.884V106.962ZM42.0959 105.73H46.3659C46.3659 105.105 46.1699 104.624 45.7779 104.288C45.3859 103.952 44.9006 103.784 44.3219 103.784C43.7526 103.784 43.2393 103.961 42.7819 104.316C42.3246 104.661 42.0959 105.133 42.0959 105.73ZM55.832 101.936V102.552H57.792V103.812H55.832V110H54.264V103.812H53.326V102.552H54.264V101.978C54.264 101.194 54.4973 100.573 54.964 100.116C55.44 99.6493 56.0093 99.416 56.672 99.416C57.344 99.416 57.9553 99.6633 58.506 100.158L57.862 101.264C57.554 100.937 57.232 100.774 56.896 100.774C56.56 100.774 56.2987 100.881 56.112 101.096C55.9253 101.301 55.832 101.581 55.832 101.936ZM61.0587 108.04C61.5067 108.488 62.0713 108.712 62.7527 108.712C63.434 108.712 63.994 108.488 64.4327 108.04C64.8807 107.583 65.1047 106.995 65.1047 106.276C65.1047 105.557 64.8807 104.974 64.4327 104.526C63.994 104.069 63.434 103.84 62.7527 103.84C62.0713 103.84 61.5067 104.069 61.0587 104.526C60.62 104.974 60.4007 105.557 60.4007 106.276C60.4007 106.995 60.62 107.583 61.0587 108.04ZM65.5527 109.006C64.806 109.743 63.8727 110.112 62.7527 110.112C61.6327 110.112 60.6993 109.743 59.9527 109.006C59.206 108.259 58.8327 107.349 58.8327 106.276C58.8327 105.203 59.206 104.297 59.9527 103.56C60.6993 102.813 61.6327 102.44 62.7527 102.44C63.8727 102.44 64.806 102.813 65.5527 103.56C66.2993 104.297 66.6727 105.203 66.6727 106.276C66.6727 107.349 66.2993 108.259 65.5527 109.006ZM71.9595 110.112C70.9235 110.112 70.0322 109.762 69.2855 109.062C68.5388 108.353 68.1655 107.429 68.1655 106.29C68.1655 105.151 68.5528 104.227 69.3275 103.518C70.1115 102.799 71.0635 102.44 72.1835 102.44C73.3035 102.44 74.2508 102.827 75.0255 103.602L74.1015 104.736C73.4575 104.176 72.8088 103.896 72.1555 103.896C71.5022 103.896 70.9328 104.115 70.4475 104.554C69.9715 104.983 69.7335 105.543 69.7335 106.234C69.7335 106.915 69.9715 107.494 70.4475 107.97C70.9235 108.446 71.5068 108.684 72.1975 108.684C72.8975 108.684 73.5555 108.367 74.1715 107.732L75.0955 108.74C74.1902 109.655 73.1448 110.112 71.9595 110.112ZM82.1299 106.584V102.552H83.6979V110H82.1299V108.642C81.8779 109.099 81.5279 109.459 81.0799 109.72C80.6412 109.981 80.1652 110.112 79.6519 110.112C78.8119 110.112 78.1306 109.855 77.6079 109.342C77.0946 108.829 76.8379 108.087 76.8379 107.116V102.552H78.4059V106.64C78.4059 108.012 78.9752 108.698 80.1139 108.698C80.6552 108.698 81.1266 108.521 81.5279 108.166C81.9292 107.802 82.1299 107.275 82.1299 106.584ZM91.4787 107.774C91.4787 108.483 91.222 109.053 90.7087 109.482C90.1953 109.902 89.5373 110.112 88.7347 110.112C88.1933 110.112 87.6287 110.014 87.0407 109.818C86.462 109.622 85.9487 109.347 85.5007 108.992L86.2567 107.774C87.1247 108.427 87.9647 108.754 88.7767 108.754C89.1313 108.754 89.4113 108.675 89.6167 108.516C89.822 108.348 89.9247 108.138 89.9247 107.886C89.9247 107.513 89.43 107.177 88.4407 106.878C88.366 106.85 88.31 106.831 88.2727 106.822C86.7233 106.402 85.9487 105.702 85.9487 104.722C85.9487 104.031 86.2147 103.481 86.7467 103.07C87.288 102.65 87.988 102.44 88.8467 102.44C89.7053 102.44 90.5173 102.692 91.2827 103.196L90.6947 104.358C90.088 103.957 89.43 103.756 88.7207 103.756C88.3473 103.756 88.044 103.826 87.8107 103.966C87.5773 104.097 87.4607 104.297 87.4607 104.568C87.4607 104.811 87.582 104.988 87.8247 105.1C87.9927 105.184 88.226 105.263 88.5247 105.338C88.8327 105.413 89.1033 105.487 89.3367 105.562C89.57 105.637 89.794 105.721 90.0087 105.814C90.2327 105.907 90.4707 106.038 90.7227 106.206C91.2267 106.542 91.4787 107.065 91.4787 107.774ZM99.2325 108.04C99.6805 108.488 100.245 108.712 100.927 108.712C101.608 108.712 102.168 108.488 102.607 108.04C103.055 107.583 103.279 106.995 103.279 106.276C103.279 105.557 103.055 104.974 102.607 104.526C102.168 104.069 101.608 103.84 100.927 103.84C100.245 103.84 99.6805 104.069 99.2325 104.526C98.7938 104.974 98.5745 105.557 98.5745 106.276C98.5745 106.995 98.7938 107.583 99.2325 108.04ZM103.727 109.006C102.98 109.743 102.047 110.112 100.927 110.112C99.8065 110.112 98.8732 109.743 98.1265 109.006C97.3798 108.259 97.0065 107.349 97.0065 106.276C97.0065 105.203 97.3798 104.297 98.1265 103.56C98.8732 102.813 99.8065 102.44 100.927 102.44C102.047 102.44 102.98 102.813 103.727 103.56C104.473 104.297 104.847 105.203 104.847 106.276C104.847 107.349 104.473 108.259 103.727 109.006ZM108.397 105.968V110H106.829V102.552H108.397V103.91C108.649 103.453 108.995 103.093 109.433 102.832C109.881 102.571 110.362 102.44 110.875 102.44C111.715 102.44 112.392 102.697 112.905 103.21C113.428 103.723 113.689 104.465 113.689 105.436V110H112.121V105.912C112.121 104.54 111.552 103.854 110.413 103.854C109.872 103.854 109.401 104.036 108.999 104.4C108.598 104.755 108.397 105.277 108.397 105.968ZM127.052 106.962H121.214C121.251 107.503 121.499 107.942 121.956 108.278C122.413 108.605 122.936 108.768 123.524 108.768C124.457 108.768 125.167 108.474 125.652 107.886L126.548 108.866C125.745 109.697 124.7 110.112 123.412 110.112C122.367 110.112 121.475 109.767 120.738 109.076C120.01 108.376 119.646 107.443 119.646 106.276C119.646 105.1 120.019 104.167 120.766 103.476C121.513 102.785 122.39 102.44 123.398 102.44C124.415 102.44 125.279 102.748 125.988 103.364C126.697 103.971 127.052 104.811 127.052 105.884V106.962ZM121.214 105.73H125.484C125.484 105.105 125.288 104.624 124.896 104.288C124.504 103.952 124.019 103.784 123.44 103.784C122.871 103.784 122.357 103.961 121.9 104.316C121.443 104.661 121.214 105.133 121.214 105.73ZM132.882 104.022C132.108 104.022 131.524 104.274 131.132 104.778C130.74 105.282 130.544 105.959 130.544 106.808V110H128.976V102.552H130.544V104.05C130.796 103.583 131.137 103.201 131.566 102.902C132.005 102.603 132.467 102.449 132.952 102.44L132.966 104.022C132.938 104.022 132.91 104.022 132.882 104.022ZM141.629 102.552V109.048C141.629 110.364 141.269 111.349 140.551 112.002C139.841 112.665 138.927 112.996 137.807 112.996C136.687 112.996 135.674 112.646 134.769 111.946L135.511 110.756C136.239 111.307 136.971 111.582 137.709 111.582C138.455 111.582 139.043 111.391 139.473 111.008C139.911 110.625 140.131 110.014 140.131 109.174V108.222C139.897 108.661 139.561 109.011 139.123 109.272C138.693 109.533 138.208 109.664 137.667 109.664C136.677 109.664 135.865 109.319 135.231 108.628C134.596 107.937 134.279 107.079 134.279 106.052C134.279 105.025 134.596 104.167 135.231 103.476C135.865 102.785 136.673 102.44 137.653 102.44C138.642 102.44 139.445 102.846 140.061 103.658V102.552H141.629ZM135.819 105.996C135.819 106.603 136.005 107.13 136.379 107.578C136.761 108.017 137.27 108.236 137.905 108.236C138.549 108.236 139.067 108.021 139.459 107.592C139.86 107.163 140.061 106.631 140.061 105.996C140.061 105.352 139.86 104.811 139.459 104.372C139.057 103.924 138.539 103.7 137.905 103.7C137.27 103.7 136.761 103.929 136.379 104.386C136.005 104.843 135.819 105.38 135.819 105.996ZM145.837 108.04C146.285 108.488 146.849 108.712 147.531 108.712C148.212 108.712 148.772 108.488 149.211 108.04C149.659 107.583 149.883 106.995 149.883 106.276C149.883 105.557 149.659 104.974 149.211 104.526C148.772 104.069 148.212 103.84 147.531 103.84C146.849 103.84 146.285 104.069 145.837 104.526C145.398 104.974 145.179 105.557 145.179 106.276C145.179 106.995 145.398 107.583 145.837 108.04ZM150.331 109.006C149.584 109.743 148.651 110.112 147.531 110.112C146.411 110.112 145.477 109.743 144.731 109.006C143.984 108.259 143.611 107.349 143.611 106.276C143.611 105.203 143.984 104.297 144.731 103.56C145.477 102.813 146.411 102.44 147.531 102.44C148.651 102.44 149.584 102.813 150.331 103.56C151.077 104.297 151.451 105.203 151.451 106.276C151.451 107.349 151.077 108.259 150.331 109.006ZM155.002 105.968V110H153.434V102.552H155.002V103.91C155.254 103.453 155.599 103.093 156.038 102.832C156.486 102.571 156.966 102.44 157.48 102.44C158.32 102.44 158.996 102.697 159.51 103.21C160.032 103.723 160.294 104.465 160.294 105.436V110H158.726V105.912C158.726 104.54 158.156 103.854 157.018 103.854C156.476 103.854 156.005 104.036 155.604 104.4C155.202 104.755 155.002 105.277 155.002 105.968ZM164.42 108.04C164.868 108.488 165.433 108.712 166.114 108.712C166.796 108.712 167.356 108.488 167.794 108.04C168.242 107.583 168.466 106.995 168.466 106.276C168.466 105.557 168.242 104.974 167.794 104.526C167.356 104.069 166.796 103.84 166.114 103.84C165.433 103.84 164.868 104.069 164.42 104.526C163.982 104.974 163.762 105.557 163.762 106.276C163.762 106.995 163.982 107.583 164.42 108.04ZM168.914 109.006C168.168 109.743 167.234 110.112 166.114 110.112C164.994 110.112 164.061 109.743 163.314 109.006C162.568 108.259 162.194 107.349 162.194 106.276C162.194 105.203 162.568 104.297 163.314 103.56C164.061 102.813 164.994 102.44 166.114 102.44C167.234 102.44 168.168 102.813 168.914 103.56C169.661 104.297 170.034 105.203 170.034 106.276C170.034 107.349 169.661 108.259 168.914 109.006ZM173.585 105.968V110H172.017V102.552H173.585V103.91C173.809 103.453 174.145 103.093 174.593 102.832C175.051 102.571 175.541 102.44 176.063 102.44C177.239 102.44 178.037 102.925 178.457 103.896C179.195 102.925 180.114 102.44 181.215 102.44C182.055 102.44 182.732 102.697 183.245 103.21C183.768 103.723 184.029 104.465 184.029 105.436V110H182.461V105.912C182.461 104.54 181.892 103.854 180.753 103.854C180.221 103.854 179.755 104.027 179.353 104.372C178.961 104.708 178.756 105.203 178.737 105.856V110H177.169V105.912C177.169 105.203 177.043 104.685 176.791 104.358C176.539 104.022 176.143 103.854 175.601 103.854C175.06 103.854 174.589 104.036 174.187 104.4C173.786 104.755 173.585 105.277 173.585 105.968ZM187.977 110H186.409V102.552H187.977V110ZM186.507 101.068C186.311 100.872 186.213 100.639 186.213 100.368C186.213 100.097 186.311 99.864 186.507 99.668C186.703 99.472 186.936 99.374 187.207 99.374C187.477 99.374 187.711 99.472 187.907 99.668C188.103 99.864 188.201 100.097 188.201 100.368C188.201 100.639 188.103 100.872 187.907 101.068C187.711 101.264 187.477 101.362 187.207 101.362C186.936 101.362 186.703 101.264 186.507 101.068ZM193.754 110.112C192.718 110.112 191.827 109.762 191.08 109.062C190.334 108.353 189.96 107.429 189.96 106.29C189.96 105.151 190.348 104.227 191.122 103.518C191.906 102.799 192.858 102.44 193.978 102.44C195.098 102.44 196.046 102.827 196.82 103.602L195.896 104.736C195.252 104.176 194.604 103.896 193.95 103.896C193.297 103.896 192.728 104.115 192.242 104.554C191.766 104.983 191.528 105.543 191.528 106.234C191.528 106.915 191.766 107.494 192.242 107.97C192.718 108.446 193.302 108.684 193.992 108.684C194.692 108.684 195.35 108.367 195.966 107.732L196.89 108.74C195.985 109.655 194.94 110.112 193.754 110.112ZM203.968 107.774C203.968 108.483 203.711 109.053 203.198 109.482C202.685 109.902 202.027 110.112 201.224 110.112C200.683 110.112 200.118 110.014 199.53 109.818C198.951 109.622 198.438 109.347 197.99 108.992L198.746 107.774C199.614 108.427 200.454 108.754 201.266 108.754C201.621 108.754 201.901 108.675 202.106 108.516C202.311 108.348 202.414 108.138 202.414 107.886C202.414 107.513 201.919 107.177 200.93 106.878C200.855 106.85 200.799 106.831 200.762 106.822C199.213 106.402 198.438 105.702 198.438 104.722C198.438 104.031 198.704 103.481 199.236 103.07C199.777 102.65 200.477 102.44 201.336 102.44C202.195 102.44 203.007 102.692 203.772 103.196L203.184 104.358C202.577 103.957 201.919 103.756 201.21 103.756C200.837 103.756 200.533 103.826 200.3 103.966C200.067 104.097 199.95 104.297 199.95 104.568C199.95 104.811 200.071 104.988 200.314 105.1C200.482 105.184 200.715 105.263 201.014 105.338C201.322 105.413 201.593 105.487 201.826 105.562C202.059 105.637 202.283 105.721 202.498 105.814C202.722 105.907 202.96 106.038 203.212 106.206C203.716 106.542 203.968 107.065 203.968 107.774ZM216.02 110H214.592V109.006C213.976 109.743 213.15 110.112 212.114 110.112C211.339 110.112 210.695 109.893 210.182 109.454C209.678 109.015 209.426 108.432 209.426 107.704C209.426 106.967 209.697 106.416 210.238 106.052C210.779 105.688 211.512 105.506 212.436 105.506H214.466V105.226C214.466 104.237 213.915 103.742 212.814 103.742C212.123 103.742 211.405 103.994 210.658 104.498L209.958 103.518C210.863 102.799 211.89 102.44 213.038 102.44C213.915 102.44 214.629 102.664 215.18 103.112C215.74 103.551 216.02 104.246 216.02 105.198V110ZM214.452 107.228V106.598H212.688C211.559 106.598 210.994 106.953 210.994 107.662C210.994 108.026 211.134 108.306 211.414 108.502C211.694 108.689 212.081 108.782 212.576 108.782C213.08 108.782 213.519 108.642 213.892 108.362C214.265 108.082 214.452 107.704 214.452 107.228ZM219.971 105.968V110H218.403V102.552H219.971V103.91C220.223 103.453 220.568 103.093 221.007 102.832C221.455 102.571 221.935 102.44 222.449 102.44C223.289 102.44 223.965 102.697 224.479 103.21C225.001 103.723 225.263 104.465 225.263 105.436V110H223.695V105.912C223.695 104.54 223.125 103.854 221.987 103.854C221.445 103.854 220.974 104.036 220.573 104.4C220.171 104.755 219.971 105.277 219.971 105.968ZM230.692 110.112C229.749 110.112 228.928 109.757 228.228 109.048C227.528 108.339 227.178 107.405 227.178 106.248C227.178 105.091 227.537 104.167 228.256 103.476C228.974 102.785 229.828 102.44 230.818 102.44C231.816 102.44 232.619 102.86 233.226 103.7V99.612H234.794V110H233.226V108.88C232.647 109.701 231.802 110.112 230.692 110.112ZM228.746 106.318C228.746 107.027 228.974 107.606 229.432 108.054C229.889 108.502 230.426 108.726 231.042 108.726C231.658 108.726 232.18 108.502 232.61 108.054C233.039 107.597 233.254 107.013 233.254 106.304C233.254 105.595 233.039 105.002 232.61 104.526C232.18 104.05 231.653 103.812 231.028 103.812C230.402 103.812 229.866 104.05 229.418 104.526C228.97 105.002 228.746 105.599 228.746 106.318ZM242.87 105.968V110H241.302V102.552H242.87V103.91C243.094 103.453 243.43 103.093 243.878 102.832C244.335 102.571 244.825 102.44 245.348 102.44C246.524 102.44 247.322 102.925 247.742 103.896C248.479 102.925 249.398 102.44 250.5 102.44C251.34 102.44 252.016 102.697 252.53 103.21C253.052 103.723 253.314 104.465 253.314 105.436V110H251.746V105.912C251.746 104.54 251.176 103.854 250.038 103.854C249.506 103.854 249.039 104.027 248.638 104.372C248.246 104.708 248.04 105.203 248.022 105.856V110H246.454V105.912C246.454 105.203 246.328 104.685 246.076 104.358C245.824 104.022 245.427 103.854 244.886 103.854C244.344 103.854 243.873 104.036 243.472 104.4C243.07 104.755 242.87 105.277 242.87 105.968ZM262.623 106.962H256.785C256.822 107.503 257.07 107.942 257.527 108.278C257.984 108.605 258.507 108.768 259.095 108.768C260.028 108.768 260.738 108.474 261.223 107.886L262.119 108.866C261.316 109.697 260.271 110.112 258.983 110.112C257.938 110.112 257.046 109.767 256.309 109.076C255.581 108.376 255.217 107.443 255.217 106.276C255.217 105.1 255.59 104.167 256.337 103.476C257.084 102.785 257.961 102.44 258.969 102.44C259.986 102.44 260.85 102.748 261.559 103.364C262.268 103.971 262.623 104.811 262.623 105.884V106.962ZM256.785 105.73H261.055C261.055 105.105 260.859 104.624 260.467 104.288C260.075 103.952 259.59 103.784 259.011 103.784C258.442 103.784 257.928 103.961 257.471 104.316C257.014 104.661 256.785 105.133 256.785 105.73ZM271.477 106.962H265.639C265.677 107.503 265.924 107.942 266.381 108.278C266.839 108.605 267.361 108.768 267.949 108.768C268.883 108.768 269.592 108.474 270.077 107.886L270.973 108.866C270.171 109.697 269.125 110.112 267.837 110.112C266.792 110.112 265.901 109.767 265.163 109.076C264.435 108.376 264.071 107.443 264.071 106.276C264.071 105.1 264.445 104.167 265.191 103.476C265.938 102.785 266.815 102.44 267.823 102.44C268.841 102.44 269.704 102.748 270.413 103.364C271.123 103.971 271.477 104.811 271.477 105.884V106.962ZM265.639 105.73H269.909C269.909 105.105 269.713 104.624 269.321 104.288C268.929 103.952 268.444 103.784 267.865 103.784C267.296 103.784 266.783 103.961 266.325 104.316C265.868 104.661 265.639 105.133 265.639 105.73ZM275.279 103.812V107.592C275.279 107.947 275.372 108.231 275.559 108.446C275.746 108.651 276.007 108.754 276.343 108.754C276.679 108.754 277.001 108.591 277.309 108.264L277.953 109.37C277.402 109.865 276.791 110.112 276.119 110.112C275.456 110.112 274.887 109.883 274.411 109.426C273.944 108.959 273.711 108.334 273.711 107.55V103.812H272.773V102.552H273.711V100.214H275.279V102.552H277.239V103.812H275.279ZM280.966 110H279.398V102.552H280.966V110ZM279.496 101.068C279.3 100.872 279.202 100.639 279.202 100.368C279.202 100.097 279.3 99.864 279.496 99.668C279.692 99.472 279.926 99.374 280.196 99.374C280.467 99.374 280.7 99.472 280.896 99.668C281.092 99.864 281.19 100.097 281.19 100.368C281.19 100.639 281.092 100.872 280.896 101.068C280.7 101.264 280.467 101.362 280.196 101.362C279.926 101.362 279.692 101.264 279.496 101.068ZM285.008 105.968V110H283.44V102.552H285.008V103.91C285.26 103.453 285.606 103.093 286.044 102.832C286.492 102.571 286.973 102.44 287.486 102.44C288.326 102.44 289.003 102.697 289.516 103.21C290.039 103.723 290.3 104.465 290.3 105.436V110H288.732V105.912C288.732 104.54 288.163 103.854 287.024 103.854C286.483 103.854 286.012 104.036 285.61 104.4C285.209 104.755 285.008 105.277 285.008 105.968ZM299.579 102.552V109.048C299.579 110.364 299.22 111.349 298.501 112.002C297.792 112.665 296.877 112.996 295.757 112.996C294.637 112.996 293.624 112.646 292.719 111.946L293.461 110.756C294.189 111.307 294.922 111.582 295.659 111.582C296.406 111.582 296.994 111.391 297.423 111.008C297.862 110.625 298.081 110.014 298.081 109.174V108.222C297.848 108.661 297.512 109.011 297.073 109.272C296.644 109.533 296.158 109.664 295.617 109.664C294.628 109.664 293.816 109.319 293.181 108.628C292.546 107.937 292.229 107.079 292.229 106.052C292.229 105.025 292.546 104.167 293.181 103.476C293.816 102.785 294.623 102.44 295.603 102.44C296.592 102.44 297.395 102.846 298.011 103.658V102.552H299.579ZM293.769 105.996C293.769 106.603 293.956 107.13 294.329 107.578C294.712 108.017 295.22 108.236 295.855 108.236C296.499 108.236 297.017 108.021 297.409 107.592C297.81 107.163 298.011 106.631 298.011 105.996C298.011 105.352 297.81 104.811 297.409 104.372C297.008 103.924 296.49 103.7 295.855 103.7C295.22 103.7 294.712 103.929 294.329 104.386C293.956 104.843 293.769 105.38 293.769 105.996ZM27.072 132.968C26.3907 132.968 25.7747 132.721 25.224 132.226L25.938 130.952C26.2647 131.26 26.6007 131.414 26.946 131.414C27.3007 131.414 27.5853 131.288 27.8 131.036C28.024 130.784 28.136 130.509 28.136 130.21C28.136 130.079 27.1327 127.527 25.126 122.552H26.806L29.032 128.04L31.258 122.552H32.938L29.326 131.4C29.1113 131.885 28.8033 132.268 28.402 132.548C28.0007 132.828 27.5573 132.968 27.072 132.968ZM35.986 128.04C36.434 128.488 36.9987 128.712 37.68 128.712C38.3613 128.712 38.9213 128.488 39.36 128.04C39.808 127.583 40.032 126.995 40.032 126.276C40.032 125.557 39.808 124.974 39.36 124.526C38.9213 124.069 38.3613 123.84 37.68 123.84C36.9987 123.84 36.434 124.069 35.986 124.526C35.5473 124.974 35.328 125.557 35.328 126.276C35.328 126.995 35.5473 127.583 35.986 128.04ZM40.48 129.006C39.7333 129.743 38.8 130.112 37.68 130.112C36.56 130.112 35.6267 129.743 34.88 129.006C34.1333 128.259 33.76 127.349 33.76 126.276C33.76 125.203 34.1333 124.297 34.88 123.56C35.6267 122.813 36.56 122.44 37.68 122.44C38.8 122.44 39.7333 122.813 40.48 123.56C41.2267 124.297 41.6 125.203 41.6 126.276C41.6 127.349 41.2267 128.259 40.48 129.006ZM48.7908 126.584V122.552H50.3588V130H48.7908V128.642C48.5388 129.099 48.1888 129.459 47.7408 129.72C47.3022 129.981 46.8262 130.112 46.3128 130.112C45.4728 130.112 44.7915 129.855 44.2688 129.342C43.7555 128.829 43.4988 128.087 43.4988 127.116V122.552H45.0668V126.64C45.0668 128.012 45.6362 128.698 46.7748 128.698C47.3162 128.698 47.7875 128.521 48.1888 128.166C48.5902 127.802 48.7908 127.275 48.7908 126.584ZM60.3614 130H58.5694L55.9934 122.552H57.6174L59.4654 128.18L61.3134 122.552H62.9374L64.7854 128.18L66.6334 122.552H68.2574L65.6814 130H63.8894L62.1254 124.904L60.3614 130ZM71.4129 125.968V130H69.8449V119.626H71.4129V123.91C71.6369 123.453 71.9729 123.093 72.4209 122.832C72.8783 122.571 73.3683 122.44 73.8909 122.44C74.7309 122.44 75.4076 122.697 75.9209 123.21C76.4436 123.723 76.7049 124.465 76.7049 125.436V130H75.1369V125.912C75.1369 124.54 74.5676 123.854 73.4289 123.854C72.8876 123.854 72.4163 124.036 72.0149 124.4C71.6136 124.755 71.4129 125.277 71.4129 125.968ZM86.0257 126.962H80.1877C80.2251 127.503 80.4724 127.942 80.9297 128.278C81.3871 128.605 81.9097 128.768 82.4977 128.768C83.4311 128.768 84.1404 128.474 84.6257 127.886L85.5217 128.866C84.7191 129.697 83.6737 130.112 82.3857 130.112C81.3404 130.112 80.4491 129.767 79.7117 129.076C78.9837 128.376 78.6197 127.443 78.6197 126.276C78.6197 125.1 78.9931 124.167 79.7397 123.476C80.4864 122.785 81.3637 122.44 82.3717 122.44C83.3891 122.44 84.2524 122.748 84.9617 123.364C85.6711 123.971 86.0257 124.811 86.0257 125.884V126.962ZM80.1877 125.73H84.4577C84.4577 125.105 84.2617 124.624 83.8697 124.288C83.4777 123.952 82.9924 123.784 82.4137 123.784C81.8444 123.784 81.3311 123.961 80.8737 124.316C80.4164 124.661 80.1877 125.133 80.1877 125.73ZM91.856 124.022C91.0814 124.022 90.498 124.274 90.106 124.778C89.714 125.282 89.518 125.959 89.518 126.808V130H87.95V122.552H89.518V124.05C89.77 123.583 90.1107 123.201 90.54 122.902C90.9787 122.603 91.4407 122.449 91.926 122.44L91.94 124.022C91.912 124.022 91.884 124.022 91.856 124.022ZM100.644 126.962H94.8065C94.8438 127.503 95.0911 127.942 95.5485 128.278C96.0058 128.605 96.5285 128.768 97.1165 128.768C98.0498 128.768 98.7591 128.474 99.2445 127.886L100.14 128.866C99.3378 129.697 98.2925 130.112 97.0045 130.112C95.9591 130.112 95.0678 129.767 94.3305 129.076C93.6025 128.376 93.2385 127.443 93.2385 126.276C93.2385 125.1 93.6118 124.167 94.3585 123.476C95.1051 122.785 95.9825 122.44 96.9905 122.44C98.0078 122.44 98.8711 122.748 99.5805 123.364C100.29 123.971 100.644 124.811 100.644 125.884V126.962ZM94.8065 125.73H99.0765C99.0765 125.105 98.8805 124.624 98.4885 124.288C98.0965 123.952 97.6111 123.784 97.0325 123.784C96.4631 123.784 95.9498 123.961 95.4925 124.316C95.0351 124.661 94.8065 125.133 94.8065 125.73ZM107.549 132.968C106.867 132.968 106.251 132.721 105.701 132.226L106.415 130.952C106.741 131.26 107.077 131.414 107.423 131.414C107.777 131.414 108.062 131.288 108.277 131.036C108.501 130.784 108.613 130.509 108.613 130.21C108.613 130.079 107.609 127.527 105.603 122.552H107.283L109.509 128.04L111.735 122.552H113.415L109.803 131.4C109.588 131.885 109.28 132.268 108.879 132.548C108.477 132.828 108.034 132.968 107.549 132.968ZM116.463 128.04C116.911 128.488 117.475 128.712 118.157 128.712C118.838 128.712 119.398 128.488 119.837 128.04C120.285 127.583 120.509 126.995 120.509 126.276C120.509 125.557 120.285 124.974 119.837 124.526C119.398 124.069 118.838 123.84 118.157 123.84C117.475 123.84 116.911 124.069 116.463 124.526C116.024 124.974 115.805 125.557 115.805 126.276C115.805 126.995 116.024 127.583 116.463 128.04ZM120.957 129.006C120.21 129.743 119.277 130.112 118.157 130.112C117.037 130.112 116.103 129.743 115.357 129.006C114.61 128.259 114.237 127.349 114.237 126.276C114.237 125.203 114.61 124.297 115.357 123.56C116.103 122.813 117.037 122.44 118.157 122.44C119.277 122.44 120.21 122.813 120.957 123.56C121.703 124.297 122.077 125.203 122.077 126.276C122.077 127.349 121.703 128.259 120.957 129.006ZM129.267 126.584V122.552H130.835V130H129.267V128.642C129.015 129.099 128.665 129.459 128.217 129.72C127.779 129.981 127.303 130.112 126.789 130.112C125.949 130.112 125.268 129.855 124.745 129.342C124.232 128.829 123.975 128.087 123.975 127.116V122.552H125.543V126.64C125.543 128.012 126.113 128.698 127.251 128.698C127.793 128.698 128.264 128.521 128.665 128.166C129.067 127.802 129.267 127.275 129.267 126.584ZM140.838 130H139.046L136.47 122.552H138.094L139.942 128.18L141.79 122.552H143.414L145.262 128.18L147.11 122.552H148.734L146.158 130H144.366L142.602 124.904L140.838 130ZM151.962 128.04C152.41 128.488 152.974 128.712 153.656 128.712C154.337 128.712 154.897 128.488 155.336 128.04C155.784 127.583 156.008 126.995 156.008 126.276C156.008 125.557 155.784 124.974 155.336 124.526C154.897 124.069 154.337 123.84 153.656 123.84C152.974 123.84 152.41 124.069 151.962 124.526C151.523 124.974 151.304 125.557 151.304 126.276C151.304 126.995 151.523 127.583 151.962 128.04ZM156.456 129.006C155.709 129.743 154.776 130.112 153.656 130.112C152.536 130.112 151.602 129.743 150.856 129.006C150.109 128.259 149.736 127.349 149.736 126.276C149.736 125.203 150.109 124.297 150.856 123.56C151.602 122.813 152.536 122.44 153.656 122.44C154.776 122.44 155.709 122.813 156.456 123.56C157.202 124.297 157.576 125.203 157.576 126.276C157.576 127.349 157.202 128.259 156.456 129.006ZM163.465 124.022C162.69 124.022 162.107 124.274 161.715 124.778C161.323 125.282 161.127 125.959 161.127 126.808V130H159.559V122.552H161.127V124.05C161.379 123.583 161.719 123.201 162.149 122.902C162.587 122.603 163.049 122.449 163.535 122.44L163.549 124.022C163.521 124.022 163.493 124.022 163.465 124.022ZM166.891 130H165.323V119.612H166.891V125.716L169.915 122.552H171.931L169.103 125.506L172.141 130H170.237L168.025 126.738L166.891 127.886V130ZM173.742 129.804C173.546 129.599 173.448 129.351 173.448 129.062C173.448 128.773 173.546 128.53 173.742 128.334C173.947 128.129 174.195 128.026 174.484 128.026C174.773 128.026 175.021 128.129 175.226 128.334C175.431 128.53 175.534 128.773 175.534 129.062C175.534 129.351 175.431 129.599 175.226 129.804C175.021 130.009 174.773 130.112 174.484 130.112C174.195 130.112 173.947 130.009 173.742 129.804ZM182.047 120.214H183.699V130H182.047V120.214ZM188.207 123.812V127.592C188.207 127.947 188.301 128.231 188.487 128.446C188.674 128.651 188.935 128.754 189.271 128.754C189.607 128.754 189.929 128.591 190.237 128.264L190.881 129.37C190.331 129.865 189.719 130.112 189.047 130.112C188.385 130.112 187.815 129.883 187.339 129.426C186.873 128.959 186.639 128.334 186.639 127.55V123.812H185.701V122.552H186.639V120.214H188.207V122.552H190.167V123.812H188.207ZM192.271 123.658V120.214H193.363V123.658H192.271ZM201.087 127.774C201.087 128.483 200.83 129.053 200.317 129.482C199.804 129.902 199.146 130.112 198.343 130.112C197.802 130.112 197.237 130.014 196.649 129.818C196.07 129.622 195.557 129.347 195.109 128.992L195.865 127.774C196.733 128.427 197.573 128.754 198.385 128.754C198.74 128.754 199.02 128.675 199.225 128.516C199.43 128.348 199.533 128.138 199.533 127.886C199.533 127.513 199.038 127.177 198.049 126.878C197.974 126.85 197.918 126.831 197.881 126.822C196.332 126.402 195.557 125.702 195.557 124.722C195.557 124.031 195.823 123.481 196.355 123.07C196.896 122.65 197.596 122.44 198.455 122.44C199.314 122.44 200.126 122.692 200.891 123.196L200.303 124.358C199.696 123.957 199.038 123.756 198.329 123.756C197.956 123.756 197.652 123.826 197.419 123.966C197.186 124.097 197.069 124.297 197.069 124.568C197.069 124.811 197.19 124.988 197.433 125.1C197.601 125.184 197.834 125.263 198.133 125.338C198.441 125.413 198.712 125.487 198.945 125.562C199.178 125.637 199.402 125.721 199.617 125.814C199.841 125.907 200.079 126.038 200.331 126.206C200.835 126.542 201.087 127.065 201.087 127.774ZM208.841 128.04C209.289 128.488 209.853 128.712 210.535 128.712C211.216 128.712 211.776 128.488 212.215 128.04C212.663 127.583 212.887 126.995 212.887 126.276C212.887 125.557 212.663 124.974 212.215 124.526C211.776 124.069 211.216 123.84 210.535 123.84C209.853 123.84 209.289 124.069 208.841 124.526C208.402 124.974 208.183 125.557 208.183 126.276C208.183 126.995 208.402 127.583 208.841 128.04ZM213.335 129.006C212.588 129.743 211.655 130.112 210.535 130.112C209.415 130.112 208.481 129.743 207.735 129.006C206.988 128.259 206.615 127.349 206.615 126.276C206.615 125.203 206.988 124.297 207.735 123.56C208.481 122.813 209.415 122.44 210.535 122.44C211.655 122.44 212.588 122.813 213.335 123.56C214.081 124.297 214.455 125.203 214.455 126.276C214.455 127.349 214.081 128.259 213.335 129.006ZM218.006 125.968V130H216.438V122.552H218.006V123.91C218.258 123.453 218.603 123.093 219.042 122.832C219.49 122.571 219.97 122.44 220.484 122.44C221.324 122.44 222 122.697 222.514 123.21C223.036 123.723 223.298 124.465 223.298 125.436V130H221.73V125.912C221.73 124.54 221.16 123.854 220.022 123.854C219.48 123.854 219.009 124.036 218.608 124.4C218.206 124.755 218.006 125.277 218.006 125.968ZM227.256 130H225.688V119.612H227.256V130ZM230.668 132.968C229.987 132.968 229.371 132.721 228.82 132.226L229.534 130.952C229.861 131.26 230.197 131.414 230.542 131.414C230.897 131.414 231.181 131.288 231.396 131.036C231.62 130.784 231.732 130.509 231.732 130.21C231.732 130.079 230.729 127.527 228.722 122.552H230.402L232.628 128.04L234.854 122.552H236.534L232.922 131.4C232.707 131.885 232.399 132.268 231.998 132.548C231.597 132.828 231.153 132.968 230.668 132.968ZM248.045 130H246.617V129.006C246.001 129.743 245.175 130.112 244.139 130.112C243.364 130.112 242.72 129.893 242.207 129.454C241.703 129.015 241.451 128.432 241.451 127.704C241.451 126.967 241.722 126.416 242.263 126.052C242.804 125.688 243.537 125.506 244.461 125.506H246.491V125.226C246.491 124.237 245.94 123.742 244.839 123.742C244.148 123.742 243.43 123.994 242.683 124.498L241.983 123.518C242.888 122.799 243.915 122.44 245.063 122.44C245.94 122.44 246.654 122.664 247.205 123.112C247.765 123.551 248.045 124.246 248.045 125.198V130ZM246.477 127.228V126.598H244.713C243.584 126.598 243.019 126.953 243.019 127.662C243.019 128.026 243.159 128.306 243.439 128.502C243.719 128.689 244.106 128.782 244.601 128.782C245.105 128.782 245.544 128.642 245.917 128.362C246.29 128.082 246.477 127.704 246.477 127.228ZM27.702 150H26.134V139.612H27.702V145.716L30.726 142.552H32.742L29.914 145.506L32.952 150H31.048L28.836 146.738L27.702 147.886V150ZM41.3988 146.962H35.5608C35.5981 147.503 35.8454 147.942 36.3028 148.278C36.7601 148.605 37.2828 148.768 37.8708 148.768C38.8041 148.768 39.5134 148.474 39.9988 147.886L40.8948 148.866C40.0921 149.697 39.0468 150.112 37.7588 150.112C36.7134 150.112 35.8221 149.767 35.0848 149.076C34.3568 148.376 33.9928 147.443 33.9928 146.276C33.9928 145.1 34.3661 144.167 35.1128 143.476C35.8594 142.785 36.7368 142.44 37.7448 142.44C38.7621 142.44 39.6254 142.748 40.3348 143.364C41.0441 143.971 41.3988 144.811 41.3988 145.884V146.962ZM35.5608 145.73H39.8308C39.8308 145.105 39.6348 144.624 39.2428 144.288C38.8508 143.952 38.3654 143.784 37.7868 143.784C37.2174 143.784 36.7041 143.961 36.2468 144.316C35.7894 144.661 35.5608 145.133 35.5608 145.73ZM44.179 152.968C43.4977 152.968 42.8817 152.721 42.331 152.226L43.045 150.952C43.3717 151.26 43.7077 151.414 44.053 151.414C44.4077 151.414 44.6924 151.288 44.907 151.036C45.131 150.784 45.243 150.509 45.243 150.21C45.243 150.079 44.2397 147.527 42.233 142.552H43.913L46.139 148.04L48.365 142.552H50.045L46.433 151.4C46.2184 151.885 45.9104 152.268 45.509 152.548C45.1077 152.828 44.6644 152.968 44.179 152.968ZM56.7041 147.774C56.7041 148.483 56.4474 149.053 55.9341 149.482C55.4207 149.902 54.7627 150.112 53.9601 150.112C53.4187 150.112 52.8541 150.014 52.2661 149.818C51.6874 149.622 51.1741 149.347 50.7261 148.992L51.4821 147.774C52.3501 148.427 53.1901 148.754 54.0021 148.754C54.3567 148.754 54.6367 148.675 54.8421 148.516C55.0474 148.348 55.1501 148.138 55.1501 147.886C55.1501 147.513 54.6554 147.177 53.6661 146.878C53.5914 146.85 53.5354 146.831 53.4981 146.822C51.9487 146.402 51.1741 145.702 51.1741 144.722C51.1741 144.031 51.4401 143.481 51.9721 143.07C52.5134 142.65 53.2134 142.44 54.0721 142.44C54.9307 142.44 55.7427 142.692 56.5081 143.196L55.9201 144.358C55.3134 143.957 54.6554 143.756 53.9461 143.756C53.5727 143.756 53.2694 143.826 53.0361 143.966C52.8027 144.097 52.6861 144.297 52.6861 144.568C52.6861 144.811 52.8074 144.988 53.0501 145.1C53.2181 145.184 53.4514 145.263 53.7501 145.338C54.0581 145.413 54.3287 145.487 54.5621 145.562C54.7954 145.637 55.0194 145.721 55.2341 145.814C55.4581 145.907 55.6961 146.038 55.9481 146.206C56.4521 146.542 56.7041 147.065 56.7041 147.774ZM60.6121 143.812V147.592C60.6121 147.947 60.7054 148.231 60.8921 148.446C61.0788 148.651 61.3401 148.754 61.6761 148.754C62.0121 148.754 62.3341 148.591 62.6421 148.264L63.2861 149.37C62.7354 149.865 62.1241 150.112 61.4521 150.112C60.7894 150.112 60.2201 149.883 59.7441 149.426C59.2774 148.959 59.0441 148.334 59.0441 147.55V143.812H58.1061V142.552H59.0441V140.214H60.6121V142.552H62.5721V143.812H60.6121ZM68.6377 144.022C67.863 144.022 67.2797 144.274 66.8877 144.778C66.4957 145.282 66.2997 145.959 66.2997 146.808V150H64.7317V142.552H66.2997V144.05C66.5517 143.583 66.8923 143.201 67.3217 142.902C67.7603 142.603 68.2223 142.449 68.7077 142.44L68.7217 144.022C68.6937 144.022 68.6657 144.022 68.6377 144.022ZM72.0954 148.04C72.5434 148.488 73.1081 148.712 73.7894 148.712C74.4707 148.712 75.0307 148.488 75.4694 148.04C75.9174 147.583 76.1414 146.995 76.1414 146.276C76.1414 145.557 75.9174 144.974 75.4694 144.526C75.0307 144.069 74.4707 143.84 73.7894 143.84C73.1081 143.84 72.5434 144.069 72.0954 144.526C71.6567 144.974 71.4374 145.557 71.4374 146.276C71.4374 146.995 71.6567 147.583 72.0954 148.04ZM76.5894 149.006C75.8427 149.743 74.9094 150.112 73.7894 150.112C72.6694 150.112 71.7361 149.743 70.9894 149.006C70.2427 148.259 69.8694 147.349 69.8694 146.276C69.8694 145.203 70.2427 144.297 70.9894 143.56C71.7361 142.813 72.6694 142.44 73.7894 142.44C74.9094 142.44 75.8427 142.813 76.5894 143.56C77.3361 144.297 77.7094 145.203 77.7094 146.276C77.7094 147.349 77.3361 148.259 76.5894 149.006ZM81.2602 150H79.6922V139.612H81.2602V145.716L84.2842 142.552H86.3002L83.4722 145.506L86.5102 150H84.6062L82.3942 146.738L81.2602 147.886V150ZM94.957 146.962H89.119C89.1563 147.503 89.4036 147.942 89.861 148.278C90.3183 148.605 90.841 148.768 91.429 148.768C92.3623 148.768 93.0716 148.474 93.557 147.886L94.453 148.866C93.6503 149.697 92.605 150.112 91.317 150.112C90.2716 150.112 89.3803 149.767 88.643 149.076C87.915 148.376 87.551 147.443 87.551 146.276C87.551 145.1 87.9243 144.167 88.671 143.476C89.4176 142.785 90.295 142.44 91.303 142.44C92.3203 142.44 93.1836 142.748 93.893 143.364C94.6023 143.971 94.957 144.811 94.957 145.884V146.962ZM89.119 145.73H93.389C93.389 145.105 93.193 144.624 92.801 144.288C92.409 143.952 91.9236 143.784 91.345 143.784C90.7756 143.784 90.2623 143.961 89.805 144.316C89.3476 144.661 89.119 145.133 89.119 145.73ZM106.957 150H105.529V149.006C104.913 149.743 104.087 150.112 103.051 150.112C102.276 150.112 101.632 149.893 101.119 149.454C100.615 149.015 100.363 148.432 100.363 147.704C100.363 146.967 100.634 146.416 101.175 146.052C101.716 145.688 102.449 145.506 103.373 145.506H105.403V145.226C105.403 144.237 104.852 143.742 103.751 143.742C103.06 143.742 102.342 143.994 101.595 144.498L100.895 143.518C101.8 142.799 102.827 142.44 103.975 142.44C104.852 142.44 105.566 142.664 106.117 143.112C106.677 143.551 106.957 144.246 106.957 145.198V150ZM105.389 147.228V146.598H103.625C102.496 146.598 101.931 146.953 101.931 147.662C101.931 148.026 102.071 148.306 102.351 148.502C102.631 148.689 103.018 148.782 103.513 148.782C104.017 148.782 104.456 148.642 104.829 148.362C105.202 148.082 105.389 147.704 105.389 147.228ZM112.757 150H110.965L108.389 142.552H110.013L111.861 148.18L113.709 142.552H115.333L117.181 148.18L119.029 142.552H120.653L118.077 150H116.285L114.521 144.904L112.757 150ZM128.207 150H126.779V149.006C126.163 149.743 125.337 150.112 124.301 150.112C123.526 150.112 122.882 149.893 122.369 149.454C121.865 149.015 121.613 148.432 121.613 147.704C121.613 146.967 121.883 146.416 122.425 146.052C122.966 145.688 123.699 145.506 124.623 145.506H126.653V145.226C126.653 144.237 126.102 143.742 125.001 143.742C124.31 143.742 123.591 143.994 122.845 144.498L122.145 143.518C123.05 142.799 124.077 142.44 125.225 142.44C126.102 142.44 126.816 142.664 127.367 143.112C127.927 143.551 128.207 144.246 128.207 145.198V150ZM126.639 147.228V146.598H124.875C123.745 146.598 123.181 146.953 123.181 147.662C123.181 148.026 123.321 148.306 123.601 148.502C123.881 148.689 124.268 148.782 124.763 148.782C125.267 148.782 125.705 148.642 126.079 148.362C126.452 148.082 126.639 147.704 126.639 147.228ZM131.445 152.968C130.764 152.968 130.148 152.721 129.597 152.226L130.311 150.952C130.638 151.26 130.974 151.414 131.319 151.414C131.674 151.414 131.959 151.288 132.173 151.036C132.397 150.784 132.509 150.509 132.509 150.21C132.509 150.079 131.506 147.527 129.499 142.552H131.179L133.405 148.04L135.631 142.552H137.311L133.699 151.4C133.485 151.885 133.177 152.268 132.775 152.548C132.374 152.828 131.931 152.968 131.445 152.968ZM138.325 149.804C138.129 149.599 138.031 149.351 138.031 149.062C138.031 148.773 138.129 148.53 138.325 148.334C138.53 148.129 138.777 148.026 139.067 148.026C139.356 148.026 139.603 148.129 139.809 148.334C140.014 148.53 140.117 148.773 140.117 149.062C140.117 149.351 140.014 149.599 139.809 149.804C139.603 150.009 139.356 150.112 139.067 150.112C138.777 150.112 138.53 150.009 138.325 149.804Z" fill="#737373"/>
<path d="M25.5 178.9C25.6326 178.9 25.7598 178.953 25.8536 179.047C25.9473 179.141 26 179.268 26 179.4V181.9C26 182.166 26.1054 182.42 26.2929 182.607C26.4804 182.795 26.7348 182.9 27 182.9H39C39.2652 182.9 39.5196 182.795 39.7071 182.607C39.8946 182.42 40 182.166 40 181.9V179.4C40 179.268 40.0527 179.141 40.1464 179.047C40.2402 178.953 40.3674 178.9 40.5 178.9C40.6326 178.9 40.7598 178.953 40.8536 179.047C40.9473 179.141 41 179.268 41 179.4V181.9C41 182.431 40.7893 182.94 40.4142 183.315C40.0391 183.69 39.5304 183.9 39 183.9H27C26.4696 183.9 25.9609 183.69 25.5858 183.315C25.2107 182.94 25 182.431 25 181.9V179.4C25 179.268 25.0527 179.141 25.1464 179.047C25.2402 178.953 25.3674 178.9 25.5 178.9Z" fill="#737373"/>
<path d="M32.6466 180.854C32.6931 180.901 32.7483 180.938 32.809 180.963C32.8697 180.988 32.9349 181.001 33.0006 181.001C33.0664 181.001 33.1315 180.988 33.1923 180.963C33.253 180.938 33.3082 180.901 33.3546 180.854L36.3546 177.854C36.4485 177.76 36.5013 177.633 36.5013 177.5C36.5013 177.367 36.4485 177.24 36.3546 177.146C36.2607 177.052 36.1334 176.999 36.0006 176.999C35.8679 176.999 35.7405 177.052 35.6466 177.146L33.5006 179.293V170.5C33.5006 170.367 33.448 170.24 33.3542 170.146C33.2604 170.053 33.1332 170 33.0006 170C32.868 170 32.7408 170.053 32.6471 170.146C32.5533 170.24 32.5006 170.367 32.5006 170.5V179.293L30.3546 177.146C30.2607 177.052 30.1334 176.999 30.0006 176.999C29.8679 176.999 29.7405 177.052 29.6466 177.146C29.5527 177.24 29.5 177.367 29.5 177.5C29.5 177.633 29.5527 177.76 29.6466 177.854L32.6466 180.854Z" fill="#737373"/>
<path d="M51.434 172.214H55.396V182H53.296V174.076H51.434V172.214ZM63.9305 172.214V174.104H60.0665V175.742C60.3558 175.658 60.6872 175.616 61.0605 175.616C62.0032 175.616 62.8152 175.901 63.4965 176.47C64.1778 177.039 64.5185 177.809 64.5185 178.78C64.5185 179.741 64.1638 180.539 63.4545 181.174C62.7545 181.799 61.8865 182.112 60.8505 182.112C59.5252 182.112 58.4192 181.622 57.5325 180.642L58.6805 179.046C58.7645 179.13 58.8765 179.233 59.0165 179.354C59.1565 179.475 59.4132 179.639 59.7865 179.844C60.1598 180.04 60.5332 180.138 60.9065 180.138C61.2798 180.138 61.6112 180.026 61.9005 179.802C62.1898 179.578 62.3345 179.247 62.3345 178.808C62.3345 178.369 62.1758 178.033 61.8585 177.8C61.5505 177.557 61.1492 177.436 60.6545 177.436C60.1598 177.436 59.5858 177.613 58.9325 177.968L58.0225 176.988V172.214H63.9305ZM73.6317 173.908C73.2677 173.908 72.9784 173.997 72.7637 174.174C72.5584 174.342 72.4557 174.571 72.4557 174.86C72.4557 175.14 72.5817 175.364 72.8337 175.532C73.0951 175.7 73.6877 175.901 74.6117 176.134C75.5451 176.358 76.2684 176.699 76.7817 177.156C77.2951 177.613 77.5517 178.281 77.5517 179.158C77.5517 180.035 77.2204 180.749 76.5577 181.3C75.9044 181.841 75.0411 182.112 73.9677 182.112C72.4184 182.112 71.0231 181.538 69.7817 180.39L71.0837 178.794C72.1384 179.718 73.1137 180.18 74.0097 180.18C74.4111 180.18 74.7237 180.096 74.9477 179.928C75.1811 179.751 75.2977 179.517 75.2977 179.228C75.2977 178.929 75.1764 178.696 74.9337 178.528C74.6911 178.351 74.2104 178.173 73.4917 177.996C72.3531 177.725 71.5177 177.375 70.9857 176.946C70.4631 176.507 70.2017 175.826 70.2017 174.902C70.2017 173.969 70.5331 173.25 71.1957 172.746C71.8677 172.242 72.7031 171.99 73.7017 171.99C74.3551 171.99 75.0084 172.102 75.6617 172.326C76.3151 172.55 76.8844 172.867 77.3697 173.278L76.2637 174.874C75.4144 174.23 74.5371 173.908 73.6317 173.908ZM85.7975 182H83.8235V181.09C83.2821 181.771 82.6101 182.112 81.8075 182.112C81.0141 182.112 80.3468 181.883 79.8055 181.426C79.2641 180.959 78.9935 180.343 78.9935 179.578C78.9935 178.803 79.2735 178.225 79.8335 177.842C80.3935 177.459 81.1588 177.268 82.1295 177.268H83.6975V177.226C83.6975 176.423 83.2728 176.022 82.4235 176.022C82.0595 176.022 81.6721 176.097 81.2615 176.246C80.8601 176.386 80.5195 176.563 80.2395 176.778L79.3015 175.42C80.2908 174.701 81.4201 174.342 82.6895 174.342C83.6041 174.342 84.3508 174.571 84.9295 175.028C85.5081 175.485 85.7975 176.209 85.7975 177.198V182ZM83.6835 179.13V178.766H82.3675C81.5275 178.766 81.1075 179.027 81.1075 179.55C81.1075 179.821 81.2055 180.031 81.4015 180.18C81.6068 180.32 81.8961 180.39 82.2695 180.39C82.6428 180.39 82.9695 180.278 83.2495 180.054C83.5388 179.821 83.6835 179.513 83.6835 179.13ZM90.012 182H87.912V171.612H90.012V182ZM98.7239 180.908C97.8745 181.711 96.8759 182.112 95.7279 182.112C94.5892 182.112 93.6465 181.762 92.8999 181.062C92.1532 180.353 91.7799 179.405 91.7799 178.22C91.7799 177.035 92.1579 176.092 92.9139 175.392C93.6792 174.692 94.5799 174.342 95.6159 174.342C96.6519 174.342 97.5292 174.655 98.2479 175.28C98.9759 175.905 99.3399 176.764 99.3399 177.856V178.976H93.8519C93.9172 179.387 94.1319 179.723 94.4959 179.984C94.8599 180.245 95.2705 180.376 95.7279 180.376C96.4652 180.376 97.0719 180.129 97.5479 179.634L98.7239 180.908ZM97.2119 177.478C97.1652 177.03 96.9972 176.685 96.7079 176.442C96.4185 176.199 96.0639 176.078 95.6439 176.078C95.2332 176.078 94.8552 176.204 94.5099 176.456C94.1645 176.708 93.9639 177.049 93.9079 177.478H97.2119ZM106.724 179.662C106.724 180.399 106.449 180.992 105.898 181.44C105.357 181.888 104.666 182.112 103.826 182.112C103.266 182.112 102.683 182.014 102.076 181.818C101.469 181.613 100.923 181.314 100.438 180.922L101.362 179.606C102.146 180.213 102.981 180.516 103.868 180.516C104.139 180.516 104.353 180.465 104.512 180.362C104.671 180.25 104.75 180.105 104.75 179.928C104.75 179.751 104.638 179.587 104.414 179.438C104.199 179.289 103.882 179.149 103.462 179.018C103.051 178.887 102.734 178.775 102.51 178.682C102.295 178.589 102.048 178.453 101.768 178.276C101.199 177.921 100.914 177.399 100.914 176.708C100.914 176.008 101.194 175.439 101.754 175C102.314 174.561 103.037 174.342 103.924 174.342C104.811 174.342 105.697 174.641 106.584 175.238L105.8 176.638C105.147 176.19 104.493 175.966 103.84 175.966C103.196 175.966 102.874 176.143 102.874 176.498C102.874 176.694 102.977 176.848 103.182 176.96C103.387 177.072 103.728 177.203 104.204 177.352C104.68 177.501 105.016 177.618 105.212 177.702C105.417 177.777 105.66 177.898 105.94 178.066C106.463 178.383 106.724 178.915 106.724 179.662Z" fill="#737373"/>
<path d="M32.5856 223.104V221.936C31.231 221.723 29.983 221.109 28.8416 220.096L30.3296 218.288C31.1616 219.013 31.9136 219.477 32.5856 219.68V217.296C31.4656 217.008 30.6443 216.624 30.1216 216.144C29.599 215.653 29.3376 214.955 29.3376 214.048C29.3376 213.131 29.6363 212.379 30.2336 211.792C30.831 211.195 31.615 210.837 32.5856 210.72V209.936H34.2816V210.752C35.3483 210.901 36.4096 211.344 37.4656 212.08L36.1536 213.968C35.4816 213.488 34.8576 213.168 34.2816 213.008V215.312C35.4336 215.611 36.2816 216.011 36.8256 216.512C37.3803 217.013 37.6576 217.723 37.6576 218.64C37.6576 219.557 37.3483 220.315 36.7296 220.912C36.1216 221.509 35.3056 221.867 34.2816 221.984V223.104H32.5856ZM35.0976 218.768C35.0976 218.544 35.039 218.357 34.9216 218.208C34.8043 218.059 34.591 217.92 34.2816 217.792V219.76C34.8256 219.589 35.0976 219.259 35.0976 218.768ZM32.5856 212.944C32.127 213.104 31.8976 213.397 31.8976 213.824C31.8976 214.251 32.127 214.576 32.5856 214.8V212.944ZM39.0179 210.816H43.5459V222H41.1459V212.944H39.0179V210.816ZM50.739 212.704C50.0457 212.704 49.507 212.939 49.123 213.408C48.7497 213.867 48.5203 214.496 48.435 215.296C49.1283 214.848 49.8643 214.624 50.643 214.624C51.6883 214.624 52.5577 214.965 53.251 215.648C53.955 216.331 54.307 217.243 54.307 218.384C54.307 219.515 53.9283 220.421 53.171 221.104C52.4243 221.787 51.4803 222.128 50.339 222.128C49.5497 222.128 48.8617 221.979 48.275 221.68C47.699 221.371 47.251 220.944 46.931 220.4C46.291 219.344 45.971 218.021 45.971 216.432C45.971 215.408 46.0937 214.512 46.339 213.744C46.595 212.965 46.9417 212.352 47.379 211.904C48.2323 211.008 49.2883 210.56 50.547 210.56C51.0697 210.56 51.5657 210.64 52.035 210.8C52.515 210.949 52.883 211.104 53.139 211.264C53.395 211.424 53.6777 211.627 53.987 211.872L52.803 213.632C52.739 213.568 52.643 213.483 52.515 213.376C52.3977 213.269 52.1577 213.131 51.795 212.96C51.4323 212.789 51.0803 212.704 50.739 212.704ZM50.403 216.736C49.9123 216.736 49.4963 216.885 49.155 217.184C48.8243 217.472 48.659 217.851 48.659 218.32C48.659 218.789 48.819 219.195 49.139 219.536C49.459 219.867 49.859 220.032 50.339 220.032C50.819 220.032 51.219 219.883 51.539 219.584C51.859 219.285 52.019 218.901 52.019 218.432C52.019 217.952 51.875 217.552 51.587 217.232C51.299 216.901 50.9043 216.736 50.403 216.736ZM56.5491 221.728C56.2825 221.451 56.1491 221.115 56.1491 220.72C56.1491 220.325 56.2825 219.995 56.5491 219.728C56.8265 219.451 57.1625 219.312 57.5571 219.312C57.9518 219.312 58.2825 219.451 58.5491 219.728C58.8265 219.995 58.9651 220.325 58.9651 220.72C58.9651 221.115 58.8265 221.451 58.5491 221.728C58.2825 221.995 57.9518 222.128 57.5571 222.128C57.1625 222.128 56.8265 221.995 56.5491 221.728ZM65.0345 217.168V215.216H67.4345V217.168H68.6985V219.328H67.4345V222H65.0345V219.328H60.5385V217.424L64.5225 210.816H67.2425L63.4505 217.168H65.0345ZM71.8207 211.44C72.5674 210.853 73.4954 210.56 74.6048 210.56C75.7141 210.56 76.6368 210.853 77.3728 211.44C78.1088 212.027 78.4768 212.752 78.4768 213.616C78.4768 214.469 78.1461 215.205 77.4848 215.824C78.4128 216.539 78.8767 217.477 78.8767 218.64C78.8767 219.621 78.4821 220.448 77.6927 221.12C76.9034 221.792 75.8741 222.128 74.6048 222.128C73.3354 222.128 72.3061 221.792 71.5168 221.12C70.7274 220.448 70.3328 219.621 70.3328 218.64C70.3328 217.477 70.7968 216.539 71.7248 215.824C71.0528 215.195 70.7168 214.453 70.7168 213.6C70.7168 212.747 71.0848 212.027 71.8207 211.44ZM73.3888 219.68C73.7621 219.925 74.1674 220.048 74.6048 220.048C75.0421 220.048 75.4474 219.925 75.8208 219.68C76.1941 219.424 76.3808 219.056 76.3808 218.576C76.3808 218.096 76.1994 217.728 75.8368 217.472C75.4741 217.216 75.0634 217.088 74.6048 217.088C74.1461 217.088 73.7354 217.216 73.3728 217.472C73.0101 217.728 72.8288 218.096 72.8288 218.576C72.8288 219.056 73.0154 219.424 73.3888 219.68ZM73.5328 214.784C73.8421 215.04 74.1994 215.168 74.6048 215.168C75.0101 215.168 75.3621 215.04 75.6608 214.784C75.9701 214.528 76.1248 214.213 76.1248 213.84C76.1248 213.456 75.9754 213.136 75.6768 212.88C75.3781 212.624 75.0208 212.496 74.6048 212.496C74.1888 212.496 73.8314 212.624 73.5328 212.88C73.2341 213.136 73.0848 213.456 73.0848 213.84C73.0848 214.213 73.2341 214.528 73.5328 214.784Z" fill="#BDBDBD"/>
<path d="M89.3622 223.104V221.936C88.0075 221.723 86.7595 221.109 85.6182 220.096L87.1062 218.288C87.9382 219.013 88.6902 219.477 89.3622 219.68V217.296C88.2422 217.008 87.4209 216.624 86.8982 216.144C86.3755 215.653 86.1142 214.955 86.1142 214.048C86.1142 213.131 86.4129 212.379 87.0102 211.792C87.6075 211.195 88.3915 210.837 89.3622 210.72V209.936H91.0582V210.752C92.1249 210.901 93.1862 211.344 94.2422 212.08L92.9302 213.968C92.2582 213.488 91.6342 213.168 91.0582 213.008V215.312C92.2102 215.611 93.0582 216.011 93.6022 216.512C94.1569 217.013 94.4342 217.723 94.4342 218.64C94.4342 219.557 94.1249 220.315 93.5062 220.912C92.8982 221.509 92.0822 221.867 91.0582 221.984V223.104H89.3622ZM91.8742 218.768C91.8742 218.544 91.8155 218.357 91.6982 218.208C91.5809 218.059 91.3675 217.92 91.0582 217.792V219.76C91.6022 219.589 91.8742 219.259 91.8742 218.768ZM89.3622 212.944C88.9035 213.104 88.6742 213.397 88.6742 213.824C88.6742 214.251 88.9035 214.576 89.3622 214.8V212.944ZM100.962 212.704C100.269 212.704 99.7304 212.939 99.3464 213.408C98.9731 213.867 98.7438 214.496 98.6584 215.296C99.3518 214.848 100.088 214.624 100.866 214.624C101.912 214.624 102.781 214.965 103.474 215.648C104.178 216.331 104.53 217.243 104.53 218.384C104.53 219.515 104.152 220.421 103.394 221.104C102.648 221.787 101.704 222.128 100.562 222.128C99.7731 222.128 99.0851 221.979 98.4984 221.68C97.9224 221.371 97.4744 220.944 97.1544 220.4C96.5144 219.344 96.1944 218.021 96.1944 216.432C96.1944 215.408 96.3171 214.512 96.5624 213.744C96.8184 212.965 97.1651 212.352 97.6024 211.904C98.4558 211.008 99.5118 210.56 100.77 210.56C101.293 210.56 101.789 210.64 102.258 210.8C102.738 210.949 103.106 211.104 103.362 211.264C103.618 211.424 103.901 211.627 104.21 211.872L103.026 213.632C102.962 213.568 102.866 213.483 102.738 213.376C102.621 213.269 102.381 213.131 102.018 212.96C101.656 212.789 101.304 212.704 100.962 212.704ZM100.626 216.736C100.136 216.736 99.7198 216.885 99.3784 217.184C99.0478 217.472 98.8824 217.851 98.8824 218.32C98.8824 218.789 99.0424 219.195 99.3624 219.536C99.6824 219.867 100.082 220.032 100.562 220.032C101.042 220.032 101.442 219.883 101.762 219.584C102.082 219.285 102.242 218.901 102.242 218.432C102.242 217.952 102.098 217.552 101.81 217.232C101.522 216.901 101.128 216.736 100.626 216.736ZM106.773 221.728C106.506 221.451 106.373 221.115 106.373 220.72C106.373 220.325 106.506 219.995 106.773 219.728C107.05 219.451 107.386 219.312 107.781 219.312C108.175 219.312 108.506 219.451 108.773 219.728C109.05 219.995 109.189 220.325 109.189 220.72C109.189 221.115 109.05 221.451 108.773 221.728C108.506 221.995 108.175 222.128 107.781 222.128C107.386 222.128 107.05 221.995 106.773 221.728ZM115.258 217.168V215.216H117.658V217.168H118.922V219.328H117.658V222H115.258V219.328H110.762V217.424L114.746 210.816H117.466L113.674 217.168H115.258ZM122.044 211.44C122.791 210.853 123.719 210.56 124.828 210.56C125.938 210.56 126.86 210.853 127.596 211.44C128.332 212.027 128.7 212.752 128.7 213.616C128.7 214.469 128.37 215.205 127.708 215.824C128.636 216.539 129.1 217.477 129.1 218.64C129.1 219.621 128.706 220.448 127.916 221.12C127.127 221.792 126.098 222.128 124.828 222.128C123.559 222.128 122.53 221.792 121.74 221.12C120.951 220.448 120.556 219.621 120.556 218.64C120.556 217.477 121.02 216.539 121.948 215.824C121.276 215.195 120.94 214.453 120.94 213.6C120.94 212.747 121.308 212.027 122.044 211.44ZM123.612 219.68C123.986 219.925 124.391 220.048 124.828 220.048C125.266 220.048 125.671 219.925 126.044 219.68C126.418 219.424 126.604 219.056 126.604 218.576C126.604 218.096 126.423 217.728 126.06 217.472C125.698 217.216 125.287 217.088 124.828 217.088C124.37 217.088 123.959 217.216 123.596 217.472C123.234 217.728 123.052 218.096 123.052 218.576C123.052 219.056 123.239 219.424 123.612 219.68ZM123.756 214.784C124.066 215.04 124.423 215.168 124.828 215.168C125.234 215.168 125.586 215.04 125.884 214.784C126.194 214.528 126.348 214.213 126.348 213.84C126.348 213.456 126.199 213.136 125.9 212.88C125.602 212.624 125.244 212.496 124.828 212.496C124.412 212.496 124.055 212.624 123.756 212.88C123.458 213.136 123.308 213.456 123.308 213.84C123.308 214.213 123.458 214.528 123.756 214.784Z" fill="#0061FF"/>
<path d="M46.204 270V260.214H48.388V268.054H52.56V270H46.204ZM60.675 268.908C59.8257 269.711 58.827 270.112 57.679 270.112C56.5404 270.112 55.5977 269.762 54.851 269.062C54.1044 268.353 53.731 267.405 53.731 266.22C53.731 265.035 54.109 264.092 54.865 263.392C55.6304 262.692 56.531 262.342 57.567 262.342C58.603 262.342 59.4804 262.655 60.199 263.28C60.927 263.905 61.291 264.764 61.291 265.856V266.976H55.803C55.8684 267.387 56.083 267.723 56.447 267.984C56.811 268.245 57.2217 268.376 57.679 268.376C58.4164 268.376 59.023 268.129 59.499 267.634L60.675 268.908ZM59.163 265.478C59.1164 265.03 58.9484 264.685 58.659 264.442C58.3697 264.199 58.015 264.078 57.595 264.078C57.1844 264.078 56.8064 264.204 56.461 264.456C56.1157 264.708 55.915 265.049 55.859 265.478H59.163ZM69.4033 270H67.4293V269.09C66.888 269.771 66.216 270.112 65.4133 270.112C64.62 270.112 63.9527 269.883 63.4113 269.426C62.87 268.959 62.5993 268.343 62.5993 267.578C62.5993 266.803 62.8793 266.225 63.4393 265.842C63.9993 265.459 64.7647 265.268 65.7353 265.268H67.3033V265.226C67.3033 264.423 66.8787 264.022 66.0293 264.022C65.6653 264.022 65.278 264.097 64.8673 264.246C64.466 264.386 64.1253 264.563 63.8453 264.778L62.9073 263.42C63.8967 262.701 65.026 262.342 66.2953 262.342C67.21 262.342 67.9567 262.571 68.5353 263.028C69.114 263.485 69.4033 264.209 69.4033 265.198V270ZM67.2893 267.13V266.766H65.9733C65.1333 266.766 64.7133 267.027 64.7133 267.55C64.7133 267.821 64.8113 268.031 65.0073 268.18C65.2127 268.32 65.502 268.39 65.8753 268.39C66.2487 268.39 66.5753 268.278 66.8553 268.054C67.1447 267.821 67.2893 267.513 67.2893 267.13ZM75.4798 264.316C74.8545 264.316 74.3878 264.54 74.0798 264.988C73.7718 265.427 73.6178 266.01 73.6178 266.738V270H71.5178V262.468H73.6178V263.462C73.8885 263.154 74.2245 262.893 74.6258 262.678C75.0365 262.463 75.4518 262.351 75.8718 262.342L75.8858 264.316H75.4798ZM79.5737 265.8V270H77.4737V262.468H79.5737V263.308C80.2084 262.664 80.9224 262.342 81.7157 262.342C82.509 262.342 83.1717 262.622 83.7037 263.182C84.245 263.742 84.5157 264.489 84.5157 265.422V270H82.4157V265.744C82.4157 264.587 81.991 264.008 81.1417 264.008C80.7217 264.008 80.353 264.162 80.0357 264.47C79.7277 264.769 79.5737 265.212 79.5737 265.8ZM99.4805 263.84L96.8345 269.188H95.5325L92.9005 263.84V270H90.7165V260.214H93.6705L96.1905 265.59L98.7245 260.214H101.665V270H99.4805V263.84ZM105.744 266.234C105.744 266.85 105.917 267.354 106.262 267.746C106.617 268.129 107.065 268.32 107.606 268.32C108.157 268.32 108.605 268.129 108.95 267.746C109.305 267.354 109.482 266.85 109.482 266.234C109.482 265.618 109.305 265.114 108.95 264.722C108.605 264.33 108.157 264.134 107.606 264.134C107.065 264.134 106.617 264.33 106.262 264.722C105.917 265.114 105.744 265.618 105.744 266.234ZM111.596 266.234C111.596 267.326 111.218 268.245 110.462 268.992C109.706 269.739 108.754 270.112 107.606 270.112C106.467 270.112 105.52 269.739 104.764 268.992C104.008 268.245 103.63 267.326 103.63 266.234C103.63 265.142 104.008 264.223 104.764 263.476C105.52 262.72 106.467 262.342 107.606 262.342C108.754 262.342 109.706 262.72 110.462 263.476C111.218 264.223 111.596 265.142 111.596 266.234ZM117.318 264.316C116.692 264.316 116.226 264.54 115.918 264.988C115.61 265.427 115.456 266.01 115.456 266.738V270H113.356V262.468H115.456V263.462C115.726 263.154 116.062 262.893 116.464 262.678C116.874 262.463 117.29 262.351 117.71 262.342L117.724 264.316H117.318ZM125.836 268.908C124.986 269.711 123.988 270.112 122.84 270.112C121.701 270.112 120.758 269.762 120.012 269.062C119.265 268.353 118.892 267.405 118.892 266.22C118.892 265.035 119.27 264.092 120.026 263.392C120.791 262.692 121.692 262.342 122.728 262.342C123.764 262.342 124.641 262.655 125.36 263.28C126.088 263.905 126.452 264.764 126.452 265.856V266.976H120.964C121.029 267.387 121.244 267.723 121.608 267.984C121.972 268.245 122.382 268.376 122.84 268.376C123.577 268.376 124.184 268.129 124.66 267.634L125.836 268.908ZM124.324 265.478C124.277 265.03 124.109 264.685 123.82 264.442C123.53 264.199 123.176 264.078 122.756 264.078C122.345 264.078 121.967 264.204 121.622 264.456C121.276 264.708 121.076 265.049 121.02 265.478H124.324Z" fill="#FC724D"/>
<g clip-path="url(#clip0_2_4367)">
<path d="M137 270.714L142.714 265L137 259.286L138.143 257L146.143 265L138.143 273L137 270.714Z" fill="#FC724D"/>
</g>
<path d="M25.5 265C25.5 253.126 35.1259 243.5 47 243.5H144.143C156.017 243.5 165.643 253.126 165.643 265C165.643 276.874 156.017 286.5 144.143 286.5H47C35.1259 286.5 25.5 276.874 25.5 265Z" stroke="#FC724D"/>
<defs>
<clipPath id="clip0_2_4367">
<rect width="9.14286" height="16" fill="white" transform="translate(137 257)"/>
</clipPath>
</defs>
</svg>
