<svg width="50" height="26" viewBox="0 0 50 26" fill="none" xmlns="http://www.w3.org/2000/svg">
<path d="M0 13C0 5.8203 5.8203 0 13 0H37C44.1797 0 50 5.8203 50 13C50 20.1797 44.1797 26 37 26H13C5.8203 26 0 20.1797 0 13Z" fill="#26335D"/>
<path d="M20.5 11.3H14.775L13 5.75L11.225 11.3H5.5L10.125 14.725L8.375 20.25L13 16.825L17.625 20.25L15.85 14.7L20.5 11.3Z" fill="#FFCE31"/>
<path d="M30.044 13.604V12.068H31.388V13.604H32.396V14.888H31.388V17H30.044V14.888H26.444V13.64L29.528 8.612H31.076L28.04 13.604H30.044ZM34.1112 16.832C33.9432 16.656 33.8592 16.444 33.8592 16.196C33.8592 15.948 33.9432 15.74 34.1112 15.572C34.2872 15.396 34.4992 15.308 34.7472 15.308C34.9952 15.308 35.2072 15.396 35.3832 15.572C35.5592 15.74 35.6472 15.948 35.6472 16.196C35.6472 16.444 35.5592 16.656 35.3832 16.832C35.2072 17.008 34.9952 17.096 34.7472 17.096C34.4992 17.096 34.2872 17.008 34.1112 16.832ZM39.8225 15.824C40.5665 15.824 41.1145 15.572 41.4665 15.068C41.8185 14.564 41.9985 13.884 42.0065 13.028C41.8065 13.252 41.5185 13.464 41.1425 13.664C40.7665 13.856 40.3505 13.952 39.8945 13.952C39.1425 13.952 38.5105 13.704 37.9985 13.208C37.4945 12.704 37.2425 12.04 37.2425 11.216C37.2425 10.384 37.5145 9.716 38.0585 9.212C38.6105 8.708 39.3025 8.456 40.1345 8.456C41.4785 8.456 42.4065 9.056 42.9185 10.256C43.2065 10.944 43.3505 11.72 43.3505 12.584C43.3505 13.448 43.2585 14.168 43.0745 14.744C42.8905 15.32 42.6385 15.776 42.3185 16.112C41.6945 16.768 40.9265 17.096 40.0145 17.096C39.1105 17.096 38.2905 16.812 37.5545 16.244L38.2625 15.2C38.4465 15.36 38.6905 15.504 38.9945 15.632C39.3065 15.76 39.5825 15.824 39.8225 15.824ZM40.0745 12.704C40.5625 12.704 40.9665 12.572 41.2865 12.308C41.6145 12.036 41.7785 11.688 41.7785 11.264C41.7785 10.832 41.6225 10.464 41.3105 10.16C40.9985 9.848 40.6065 9.692 40.1345 9.692C39.6705 9.692 39.2865 9.832 38.9825 10.112C38.6785 10.384 38.5265 10.736 38.5265 11.168C38.5265 11.6 38.6625 11.964 38.9345 12.26C39.2145 12.556 39.5945 12.704 40.0745 12.704Z" fill="white"/>
</svg>
