<svg width="51" height="15" viewBox="0 0 51 15" fill="none" xmlns="http://www.w3.org/2000/svg">
<path d="M4.58563 14.104V12.936C3.23096 12.7227 1.98296 12.1093 0.841625 11.096L2.32963 9.288C3.16163 10.0133 3.91363 10.4773 4.58563 10.68V8.296C3.46563 8.008 2.64429 7.624 2.12163 7.144C1.59896 6.65333 1.33763 5.95467 1.33763 5.048C1.33763 4.13067 1.63629 3.37867 2.23363 2.792C2.83096 2.19467 3.61496 1.83733 4.58563 1.72V0.936H6.28163V1.752C7.34829 1.90133 8.40963 2.344 9.46563 3.08L8.15363 4.968C7.48163 4.488 6.85763 4.168 6.28163 4.008V6.312C7.43363 6.61067 8.28163 7.01067 8.82563 7.512C9.38029 8.01333 9.65763 8.72267 9.65763 9.64C9.65763 10.5573 9.34829 11.3147 8.72963 11.912C8.12163 12.5093 7.30563 12.8667 6.28163 12.984V14.104H4.58563ZM7.09763 9.768C7.09763 9.544 7.03896 9.35733 6.92163 9.208C6.80429 9.05867 6.59096 8.92 6.28163 8.792V10.76C6.82563 10.5893 7.09763 10.2587 7.09763 9.768ZM4.58563 3.944C4.12696 4.104 3.89763 4.39733 3.89763 4.824C3.89763 5.25067 4.12696 5.576 4.58563 5.8V3.944ZM11.0179 1.816H15.5459V13H13.1459V3.944H11.0179V1.816ZM22.739 3.704C22.0457 3.704 21.507 3.93867 21.123 4.408C20.7497 4.86667 20.5203 5.496 20.435 6.296C21.1283 5.848 21.8643 5.624 22.643 5.624C23.6883 5.624 24.5577 5.96533 25.251 6.648C25.955 7.33067 26.307 8.24267 26.307 9.384C26.307 10.5147 25.9283 11.4213 25.171 12.104C24.4243 12.7867 23.4803 13.128 22.339 13.128C21.5497 13.128 20.8617 12.9787 20.275 12.68C19.699 12.3707 19.251 11.944 18.931 11.4C18.291 10.344 17.971 9.02133 17.971 7.432C17.971 6.408 18.0937 5.512 18.339 4.744C18.595 3.96533 18.9417 3.352 19.379 2.904C20.2323 2.008 21.2883 1.56 22.547 1.56C23.0697 1.56 23.5657 1.64 24.035 1.8C24.515 1.94933 24.883 2.104 25.139 2.264C25.395 2.424 25.6777 2.62667 25.987 2.872L24.803 4.632C24.739 4.568 24.643 4.48267 24.515 4.376C24.3977 4.26933 24.1577 4.13067 23.795 3.96C23.4323 3.78933 23.0803 3.704 22.739 3.704ZM22.403 7.736C21.9123 7.736 21.4963 7.88533 21.155 8.184C20.8243 8.472 20.659 8.85067 20.659 9.32C20.659 9.78933 20.819 10.1947 21.139 10.536C21.459 10.8667 21.859 11.032 22.339 11.032C22.819 11.032 23.219 10.8827 23.539 10.584C23.859 10.2853 24.019 9.90133 24.019 9.432C24.019 8.952 23.875 8.552 23.587 8.232C23.299 7.90133 22.9043 7.736 22.403 7.736ZM28.5491 12.728C28.2825 12.4507 28.1491 12.1147 28.1491 11.72C28.1491 11.3253 28.2825 10.9947 28.5491 10.728C28.8265 10.4507 29.1625 10.312 29.5571 10.312C29.9518 10.312 30.2825 10.4507 30.5491 10.728C30.8265 10.9947 30.9651 11.3253 30.9651 11.72C30.9651 12.1147 30.8265 12.4507 30.5491 12.728C30.2825 12.9947 29.9518 13.128 29.5571 13.128C29.1625 13.128 28.8265 12.9947 28.5491 12.728ZM37.0345 8.168V6.216H39.4345V8.168H40.6985V10.328H39.4345V13H37.0345V10.328H32.5385V8.424L36.5225 1.816H39.2425L35.4505 8.168H37.0345ZM43.8207 2.44C44.5674 1.85333 45.4954 1.56 46.6048 1.56C47.7141 1.56 48.6368 1.85333 49.3728 2.44C50.1088 3.02667 50.4768 3.752 50.4768 4.616C50.4768 5.46933 50.1461 6.20533 49.4848 6.824C50.4128 7.53867 50.8767 8.47733 50.8767 9.64C50.8767 10.6213 50.4821 11.448 49.6927 12.12C48.9034 12.792 47.8741 13.128 46.6048 13.128C45.3354 13.128 44.3061 12.792 43.5168 12.12C42.7274 11.448 42.3328 10.6213 42.3328 9.64C42.3328 8.47733 42.7968 7.53867 43.7248 6.824C43.0528 6.19467 42.7168 5.45333 42.7168 4.6C42.7168 3.74667 43.0848 3.02667 43.8207 2.44ZM45.3888 10.68C45.7621 10.9253 46.1674 11.048 46.6048 11.048C47.0421 11.048 47.4474 10.9253 47.8208 10.68C48.1941 10.424 48.3808 10.056 48.3808 9.576C48.3808 9.096 48.1994 8.728 47.8368 8.472C47.4741 8.216 47.0634 8.088 46.6048 8.088C46.1461 8.088 45.7354 8.216 45.3728 8.472C45.0101 8.728 44.8288 9.096 44.8288 9.576C44.8288 10.056 45.0154 10.424 45.3888 10.68ZM45.5328 5.784C45.8421 6.04 46.1994 6.168 46.6048 6.168C47.0101 6.168 47.3621 6.04 47.6608 5.784C47.9701 5.528 48.1248 5.21333 48.1248 4.84C48.1248 4.456 47.9754 4.136 47.6768 3.88C47.3781 3.624 47.0208 3.496 46.6048 3.496C46.1888 3.496 45.8314 3.624 45.5328 3.88C45.2341 4.136 45.0848 4.456 45.0848 4.84C45.0848 5.21333 45.2341 5.528 45.5328 5.784Z" fill="#BDBDBD"/>
</svg>
