<svg width="45" height="15" viewBox="0 0 45 15" fill="none" xmlns="http://www.w3.org/2000/svg">
<path d="M4.36219 14.104V12.936C3.00752 12.7227 1.75952 12.1093 0.618187 11.096L2.10619 9.288C2.93819 10.0133 3.69019 10.4773 4.36219 10.68V8.296C3.24219 8.008 2.42085 7.624 1.89819 7.144C1.37552 6.65333 1.11419 5.95467 1.11419 5.048C1.11419 4.13067 1.41285 3.37867 2.01019 2.792C2.60752 2.19467 3.39152 1.83733 4.36219 1.72V0.936H6.05819V1.752C7.12485 1.90133 8.18619 2.344 9.24219 3.08L7.93019 4.968C7.25819 4.488 6.63419 4.168 6.05819 4.008V6.312C7.21019 6.61067 8.05819 7.01067 8.60219 7.512C9.15685 8.01333 9.43419 8.72267 9.43419 9.64C9.43419 10.5573 9.12485 11.3147 8.50619 11.912C7.89819 12.5093 7.08219 12.8667 6.05819 12.984V14.104H4.36219ZM6.87419 9.768C6.87419 9.544 6.81552 9.35733 6.69819 9.208C6.58085 9.05867 6.36752 8.92 6.05819 8.792V10.76C6.60219 10.5893 6.87419 10.2587 6.87419 9.768ZM4.36219 3.944C3.90352 4.104 3.67419 4.39733 3.67419 4.824C3.67419 5.25067 3.90352 5.576 4.36219 5.8V3.944ZM15.9624 3.704C15.2691 3.704 14.7304 3.93867 14.3464 4.408C13.9731 4.86667 13.7438 5.496 13.6584 6.296C14.3518 5.848 15.0878 5.624 15.8664 5.624C16.9118 5.624 17.7811 5.96533 18.4744 6.648C19.1784 7.33067 19.5304 8.24267 19.5304 9.384C19.5304 10.5147 19.1518 11.4213 18.3944 12.104C17.6478 12.7867 16.7038 13.128 15.5624 13.128C14.7731 13.128 14.0851 12.9787 13.4984 12.68C12.9224 12.3707 12.4744 11.944 12.1544 11.4C11.5144 10.344 11.1944 9.02133 11.1944 7.432C11.1944 6.408 11.3171 5.512 11.5624 4.744C11.8184 3.96533 12.1651 3.352 12.6024 2.904C13.4558 2.008 14.5118 1.56 15.7704 1.56C16.2931 1.56 16.7891 1.64 17.2584 1.8C17.7384 1.94933 18.1064 2.104 18.3624 2.264C18.6184 2.424 18.9011 2.62667 19.2104 2.872L18.0264 4.632C17.9624 4.568 17.8664 4.48267 17.7384 4.376C17.6211 4.26933 17.3811 4.13067 17.0184 3.96C16.6558 3.78933 16.3038 3.704 15.9624 3.704ZM15.6264 7.736C15.1358 7.736 14.7198 7.88533 14.3784 8.184C14.0478 8.472 13.8824 8.85067 13.8824 9.32C13.8824 9.78933 14.0424 10.1947 14.3624 10.536C14.6824 10.8667 15.0824 11.032 15.5624 11.032C16.0424 11.032 16.4424 10.8827 16.7624 10.584C17.0824 10.2853 17.2424 9.90133 17.2424 9.432C17.2424 8.952 17.0984 8.552 16.8104 8.232C16.5224 7.90133 16.1278 7.736 15.6264 7.736ZM21.7726 12.728C21.5059 12.4507 21.3726 12.1147 21.3726 11.72C21.3726 11.3253 21.5059 10.9947 21.7726 10.728C22.0499 10.4507 22.3859 10.312 22.7806 10.312C23.1752 10.312 23.5059 10.4507 23.7726 10.728C24.0499 10.9947 24.1886 11.3253 24.1886 11.72C24.1886 12.1147 24.0499 12.4507 23.7726 12.728C23.5059 12.9947 23.1752 13.128 22.7806 13.128C22.3859 13.128 22.0499 12.9947 21.7726 12.728ZM30.2579 8.168V6.216H32.6579V8.168H33.9219V10.328H32.6579V13H30.2579V10.328H25.7619V8.424L29.7459 1.816H32.4659L28.6739 8.168H30.2579ZM37.0442 2.44C37.7909 1.85333 38.7189 1.56 39.8282 1.56C40.9375 1.56 41.8602 1.85333 42.5962 2.44C43.3322 3.02667 43.7002 3.752 43.7002 4.616C43.7002 5.46933 43.3695 6.20533 42.7082 6.824C43.6362 7.53867 44.1002 8.47733 44.1002 9.64C44.1002 10.6213 43.7055 11.448 42.9162 12.12C42.1269 12.792 41.0975 13.128 39.8282 13.128C38.5589 13.128 37.5295 12.792 36.7402 12.12C35.9509 11.448 35.5562 10.6213 35.5562 9.64C35.5562 8.47733 36.0202 7.53867 36.9482 6.824C36.2762 6.19467 35.9402 5.45333 35.9402 4.6C35.9402 3.74667 36.3082 3.02667 37.0442 2.44ZM38.6122 10.68C38.9855 10.9253 39.3909 11.048 39.8282 11.048C40.2655 11.048 40.6709 10.9253 41.0442 10.68C41.4175 10.424 41.6042 10.056 41.6042 9.576C41.6042 9.096 41.4229 8.728 41.0602 8.472C40.6975 8.216 40.2869 8.088 39.8282 8.088C39.3695 8.088 38.9589 8.216 38.5962 8.472C38.2335 8.728 38.0522 9.096 38.0522 9.576C38.0522 10.056 38.2389 10.424 38.6122 10.68ZM38.7562 5.784C39.0655 6.04 39.4229 6.168 39.8282 6.168C40.2335 6.168 40.5855 6.04 40.8842 5.784C41.1935 5.528 41.3482 5.21333 41.3482 4.84C41.3482 4.456 41.1989 4.136 40.9002 3.88C40.6015 3.624 40.2442 3.496 39.8282 3.496C39.4122 3.496 39.0549 3.624 38.7562 3.88C38.4575 4.136 38.3082 4.456 38.3082 4.84C38.3082 5.21333 38.4575 5.528 38.7562 5.784Z" fill="#0061FF"/>
</svg>
