<svg width="46" height="68" viewBox="0 0 46 68" fill="none" xmlns="http://www.w3.org/2000/svg">
<g clip-path="url(#clip0_2_4257)">
<path d="M38.75 0.25H7.25C5.46034 0.251787 3.74449 0.96352 2.479 2.229C1.21352 3.49449 0.501787 5.21034 0.5 7V61C0.501787 62.7897 1.21352 64.5055 2.479 65.771C3.74449 67.0365 5.46034 67.7482 7.25 67.75H38.75C40.5397 67.7482 42.2555 67.0365 43.521 65.771C44.7865 64.5055 45.4982 62.7897 45.5 61V7C45.4982 5.21034 44.7865 3.49449 43.521 2.229C42.2555 0.96352 40.5397 0.251787 38.75 0.25ZM43.25 61C43.25 62.1935 42.7759 63.3381 41.932 64.182C41.0881 65.0259 39.9435 65.5 38.75 65.5H7.25C6.05653 65.5 4.91193 65.0259 4.06802 64.182C3.22411 63.3381 2.75 62.1935 2.75 61V7C2.75 5.80653 3.22411 4.66193 4.06802 3.81802C4.91193 2.97411 6.05653 2.5 7.25 2.5H38.75C39.9435 2.5 41.0881 2.97411 41.932 3.81802C42.7759 4.66193 43.25 5.80653 43.25 7V61Z" fill="#2DC071"/>
<path d="M25.25 56.5H20.75C19.8549 56.5 18.9964 56.8556 18.3635 57.4885C17.7306 58.1215 17.375 58.9799 17.375 59.875C17.375 60.7701 17.7306 61.6285 18.3635 62.2615C18.9964 62.8944 19.8549 63.25 20.75 63.25H25.25C26.1451 63.25 27.0035 62.8944 27.6365 62.2615C28.2694 61.6285 28.625 60.7701 28.625 59.875C28.625 58.9799 28.2694 58.1215 27.6365 57.4885C27.0035 56.8556 26.1451 56.5 25.25 56.5ZM25.25 61H20.75C20.4516 61 20.1655 60.8815 19.9545 60.6705C19.7435 60.4595 19.625 60.1734 19.625 59.875C19.625 59.5766 19.7435 59.2905 19.9545 59.0795C20.1655 58.8685 20.4516 58.75 20.75 58.75H25.25C25.5484 58.75 25.8345 58.8685 26.0455 59.0795C26.2565 59.2905 26.375 59.5766 26.375 59.875C26.375 60.1734 26.2565 60.4595 26.0455 60.6705C25.8345 60.8815 25.5484 61 25.25 61Z" fill="#2DC071"/>
<path d="M15.125 4.75H17.375V7H15.125V4.75Z" fill="#2DC071"/>
<path d="M19.625 4.75H26.375V7H19.625V4.75Z" fill="#2DC071"/>
<path d="M22.2042 29.1703C22.4151 29.3812 22.7012 29.4997 22.9995 29.4997C23.2979 29.4997 23.584 29.3812 23.7949 29.1703L31.7498 21.2154C32.7971 20.1589 33.3832 18.7306 33.3799 17.2431C33.3767 15.7555 32.7843 14.3298 31.7324 13.2779C30.6805 12.226 29.2548 11.6336 27.7673 11.6304C26.2797 11.6271 24.8514 12.2133 23.7949 13.2605L22.9995 14.0559L22.2042 13.2605C21.1477 12.2133 19.7194 11.6271 18.2318 11.6304C16.7443 11.6336 15.3185 12.226 14.2667 13.2779C13.2148 14.3298 12.6224 15.7555 12.6192 17.2431C12.6159 18.7306 13.202 20.1589 14.2493 21.2154L22.2042 29.1703ZM15.84 14.8513C16.1534 14.5378 16.5255 14.2892 16.935 14.1195C17.3445 13.9499 17.7835 13.8625 18.2267 13.8625C18.67 13.8625 19.1089 13.9499 19.5184 14.1195C19.9279 14.2892 20.3 14.5378 20.6134 14.8513L22.2042 16.4431C22.4191 16.6464 22.7037 16.7597 22.9995 16.7597C23.2954 16.7597 23.58 16.6464 23.7949 16.4431L25.3857 14.8513C26.0187 14.2183 26.8772 13.8627 27.7724 13.8627C28.6675 13.8627 29.5261 14.2183 30.159 14.8513C30.792 15.4843 31.1476 16.3428 31.1476 17.238C31.1476 18.1331 30.792 18.9917 30.159 19.6246L22.9995 26.7841L15.84 19.6246C15.2084 18.991 14.8536 18.1327 14.8536 17.238C14.8536 16.3432 15.2084 15.4849 15.84 14.8513Z" fill="#2DC071"/>
<path d="M30.7625 39.1223C30.6638 38.9173 30.5045 38.7476 30.306 38.6363C30.1076 38.525 29.8797 38.4775 29.6533 38.5002C29.4286 38.5195 29.215 38.6059 29.0401 38.7482C28.8652 38.8904 28.737 39.0819 28.6722 39.2978L26.5561 46.3493L24.1003 34.8856C24.0467 34.6396 23.9122 34.4186 23.7182 34.2581C23.5243 34.0976 23.2821 34.0068 23.0304 34.0002C22.7779 33.9913 22.5299 34.0686 22.3271 34.2192C22.1243 34.3699 21.9788 34.585 21.9144 34.8293L19.6003 43.3174L18.4572 39.3158C18.3958 39.097 18.2694 38.902 18.0949 38.7564C17.9204 38.6108 17.7059 38.5215 17.4796 38.5002C17.2534 38.4773 17.0257 38.5242 16.827 38.6346C16.6282 38.745 16.4681 38.9136 16.3681 39.1178L14.4297 43.0002H7.25V45.2502H15.125C15.3341 45.2503 15.539 45.1921 15.7169 45.0822C15.8947 44.9724 16.0384 44.8151 16.1319 44.6281L17.0881 42.7156L18.5428 47.8096C18.61 48.0447 18.752 48.2515 18.9473 48.3986C19.1426 48.5458 19.3805 48.6253 19.625 48.6252H19.6318C19.8774 48.6238 20.1159 48.5419 20.3107 48.3922C20.5056 48.2425 20.646 48.0331 20.7106 47.7961L22.8695 39.8817L25.2747 51.1103C25.327 51.3546 25.4591 51.5745 25.6501 51.7354C25.8412 51.8964 26.0804 51.9891 26.33 51.9991H26.375C26.617 51.9991 26.8526 51.921 27.0468 51.7765C27.2409 51.632 27.3833 51.4288 27.4528 51.1969L30.0121 42.6627L30.9931 44.6247C31.0861 44.8123 31.2296 44.9703 31.4075 45.0808C31.5854 45.1913 31.7906 45.25 32 45.2502H38.75V43.0002H32.6952L30.7625 39.1223Z" fill="#2DC071"/>
</g>
<defs>
<clipPath id="clip0_2_4257">
<rect width="45" height="67.5" fill="white" transform="translate(0.5 0.25)"/>
</clipPath>
</defs>
</svg>
