<svg width="24" height="23" viewBox="0 0 24 23" fill="none" xmlns="http://www.w3.org/2000/svg">
<path d="M18.3478 12.3517C18.2365 12.2402 18.1043 12.1517 17.9587 12.0913C17.8131 12.031 17.657 11.9999 17.4995 11.9999C17.3419 11.9999 17.1858 12.031 17.0402 12.0913C16.8946 12.1517 16.7624 12.2402 16.6511 12.3517L14.7383 14.2645C13.8515 14.0005 12.1967 13.4005 11.1479 12.3517C10.0991 11.3029 9.49913 9.64814 9.23513 8.76135L11.1479 6.84857C11.2594 6.73723 11.3479 6.60498 11.4083 6.45941C11.4687 6.31383 11.4998 6.15778 11.4998 6.00018C11.4998 5.84258 11.4687 5.68653 11.4083 5.54095C11.3479 5.39538 11.2594 5.26313 11.1479 5.15179L6.34796 0.351838C6.23662 0.240304 6.10438 0.151819 5.9588 0.0914472C5.81322 0.031075 5.65717 0 5.49957 0C5.34197 0 5.18592 0.031075 5.04034 0.0914472C4.89477 0.151819 4.76252 0.240304 4.65118 0.351838L1.39681 3.60621C0.940817 4.0622 0.684019 4.68859 0.693619 5.32819C0.721219 7.03697 1.17361 12.9721 5.85117 17.6497C10.5287 22.3272 16.4639 22.7784 18.1738 22.8072H18.2074C18.841 22.8072 19.4398 22.5576 19.8934 22.104L23.1478 18.8497C23.2593 18.7383 23.3478 18.6061 23.4082 18.4605C23.4686 18.3149 23.4996 18.1589 23.4996 18.0013C23.4996 17.8437 23.4686 17.6876 23.4082 17.542C23.3478 17.3965 23.2593 17.2642 23.1478 17.1529L18.3478 12.3517ZM18.1954 20.406C16.6979 20.3808 11.5739 19.9788 7.54795 15.9517C3.50879 11.9125 3.11759 6.77057 3.0936 5.30299L5.49957 2.89701L8.60274 6.00018L7.05116 7.55177C6.91011 7.6927 6.80641 7.86657 6.74942 8.05764C6.69243 8.24872 6.68396 8.45098 6.72476 8.64615C6.75356 8.78415 7.45795 12.0565 9.44993 14.0485C11.4419 16.0405 14.7143 16.7449 14.8523 16.7737C15.0473 16.8156 15.2498 16.8078 15.441 16.751C15.6323 16.6942 15.8062 16.5901 15.9467 16.4485L17.4995 14.8969L20.6026 18.0001L18.1954 20.406Z" fill="#FC724D"/>
</svg>
